# Blender 5.0.1
# www.blender.org
mtllib Tire.mtl
o Tire
v 3.802816 -11.449473 -10.454163
v -0.002509 -15.261256 -12.975415
v -0.002509 -12.052148 -10.454163
v 4.797851 -14.501047 -12.975415
v 7.245136 -9.699074 -10.454163
v -0.002510 -19.490391 -12.758638
v 9.127609 -12.294912 -12.975415
v 9.968008 -6.971214 -10.454163
v 6.102164 -18.523621 -12.758638
v 6.492098 -19.713961 -11.171189
v -0.002510 -20.742489 -11.171189
v -0.002510 -21.108770 -2.456952
v 6.606400 -20.063232 -2.456952
v -0.002511 -20.742489 6.243937
v 12.348068 -16.728468 -11.171188
v 11.615221 -15.716948 -12.758637
v 12.563184 -8.857912 -12.975414
v 11.722779 -3.534261 -10.454162
v 14.775116 -4.526591 -12.975414
v 12.321181 0.275385 -10.454162
v 15.985312 -11.343011 -12.758637
v 17.000538 -12.077709 -11.171188
v 12.563183 -17.024437 -2.456951
v 6.492097 -19.713961 6.243937
v 6.344212 -19.253996 7.124336
v -0.002511 -20.257013 7.124335
v -0.002511 -18.082802 8.244886
v 5.671889 -17.184156 8.244886
v -0.002510 -14.822577 7.781312
v 12.065684 -16.336630 7.124336
v 12.348067 -16.728468 6.243937
v 17.296366 -12.292774 -2.456951
v 19.985653 -6.219508 -11.171188
v 18.795645 -5.831945 -12.758637
v 15.534851 0.275385 -12.975414
v 11.722780 4.085032 -10.454162
v 14.775117 5.077360 -12.975414
v 9.968009 7.521983 -10.454163
v 19.763792 0.275385 -12.758637
v 21.014277 0.275385 -11.171188
v 20.335257 -6.332385 -2.456951
v 17.000536 -12.077709 6.243937
v 16.610600 -11.794472 7.124336
v 10.788266 -14.577678 8.244886
v 4.663409 -14.083651 7.781312
v -0.002510 -12.714399 6.557434
v 4.011230 -12.079800 6.557434
v -0.002510 -12.088349 5.730333
v 3.816260 -11.483583 5.730333
v 7.635076 -10.233577 6.557435
v 7.265280 -9.726770 5.730333
v 8.872160 -11.939274 7.781312
v 14.849084 -10.514676 8.244887
v 19.521744 -6.070430 7.124336
v 19.985653 -6.219508 6.243937
v 21.384071 0.275385 -2.456951
v 19.985655 6.770276 -11.171188
v 18.795647 6.384852 -12.758637
v 12.563185 9.408681 -12.975414
v 7.245138 10.249844 -10.454163
v 9.127611 12.845682 -12.975415
v 3.802818 12.000244 -10.454163
v 15.985313 11.893782 -12.758637
v 17.000540 12.630568 -11.171188
v 20.335257 6.883154 -2.456951
v 21.014277 0.275385 6.243937
v 20.530226 0.275385 7.124336
v 17.457703 -5.397539 8.244887
v 12.213576 -8.600281 7.781312
v 10.505884 -7.360915 6.557435
v 10.001641 -6.992496 5.730333
v 12.348068 -3.738684 6.554059
v 11.756413 -3.544903 5.730333
v 14.358286 -4.390292 7.781312
v 18.358627 0.275385 8.244887
v 19.521744 6.621199 7.124336
v 19.985653 6.770276 6.243937
v 17.296368 12.845682 -2.456951
v 12.348071 17.277103 -11.171188
v 11.615224 16.265579 -12.758637
v 4.797853 15.049682 -12.975415
v -0.002507 12.605059 -10.454163
v -0.002507 15.812029 -12.975415
v -3.814623 12.000244 -10.454163
v 6.102167 19.072254 -12.758638
v 6.492101 20.262642 -11.171189
v 12.563186 17.573072 -2.456951
v 17.000538 12.630568 6.243937
v 16.610601 12.345243 7.124336
v 17.457703 5.948308 8.244887
v 15.097831 0.275385 7.781312
v 12.986759 0.275385 6.554059
v 12.361514 0.275385 5.730333
v 12.348069 4.289454 6.554059
v 11.756413 4.097811 5.730333
v 14.358287 4.941061 7.781312
v 14.849085 11.067535 8.244887
v 12.065687 16.885262 7.124336
v 12.348070 17.277103 6.243937
v 6.606403 20.611866 -2.456952
v -0.002507 21.291172 -11.171189
v -0.002507 20.041164 -12.758638
v -4.802913 15.049682 -12.975415
v -7.250198 10.249846 -10.454163
v -9.139410 12.845684 -12.975415
v -9.979815 7.521985 -10.454163
v -6.113965 19.072254 -12.758638
v -6.497160 20.262642 -11.171189
v -0.002507 21.657402 -2.456952
v 6.492101 20.262642 6.243937
v 6.344215 19.802629 7.124336
v 10.788269 15.126310 8.244886
v 12.213577 9.151004 7.781312
v 10.505885 7.911685 6.557435
v 10.001642 7.543265 5.730333
v 7.635077 10.784346 6.557435
v 7.265281 10.279630 5.730333
v 8.872162 12.492180 7.781312
v 5.671891 17.734928 8.244886
v -0.002508 20.807739 7.124335
v -0.002508 21.291172 6.243937
v -6.611463 20.611866 -2.456952
v -12.359824 17.277103 -11.171190
v -11.620283 16.265579 -12.758639
v -12.574986 9.408683 -12.975416
v -11.727841 4.085033 -10.454164
v -14.780221 5.077362 -12.975416
v -12.332936 0.275387 -10.454164
v -15.997114 11.893784 -12.758639
v -17.005600 12.630569 -11.171190
v -12.574985 17.573118 -2.456952
v -6.497161 20.262642 6.243936
v -6.349270 19.802677 7.124335
v -0.002508 18.633572 8.244886
v 4.663412 14.634420 7.781312
v 4.011232 12.630569 6.557434
v 3.816262 12.036447 5.730333
v -0.002508 13.267310 6.557434
v -0.002508 12.641258 5.730333
v -0.002508 15.373347 7.781312
v -5.676947 17.734928 8.244886
v -12.070748 16.885262 7.124335
v -12.359825 17.277103 6.243936
v -17.301428 12.845684 -2.456953
v -19.990711 6.770279 -11.171190
v -18.800705 6.384855 -12.758639
v -15.539907 0.275387 -12.975416
v -11.727842 -3.534260 -10.454164
v -14.780222 -4.526589 -12.975416
v -9.979816 -6.971212 -10.454163
v -19.768852 0.275388 -12.758639
v -21.019337 0.275388 -11.171190
v -20.340319 6.883157 -2.456953
v -17.005602 12.630569 6.243936
v -16.615662 12.345244 7.124334
v -10.793324 15.126312 8.244886
v -4.668467 14.634420 7.781312
v -4.016288 12.630569 6.557434
v -3.828068 12.036447 5.730333
v -7.640133 10.784348 6.557434
v -7.270338 10.279632 5.730332
v -8.877223 12.492182 7.781311
v -14.854145 11.067537 8.244885
v -19.533503 6.621202 7.124334
v -19.990713 6.770279 6.243936
v -21.389132 0.275388 -2.456953
v -19.990713 -6.219505 -11.171190
v -18.800707 -5.831942 -12.758639
v -12.574986 -8.857910 -12.975416
v -7.250200 -9.699072 -10.454163
v -9.139412 -12.294910 -12.975415
v -3.814625 -11.449473 -10.454163
v -15.997116 -11.343009 -12.758639
v -17.005602 -12.077661 -11.171190
v -20.340319 -6.332382 -2.456953
v -21.019337 0.275388 6.243936
v -20.535284 0.275388 7.124334
v -17.462759 5.948311 8.244885
v -12.218635 9.151053 7.781311
v -10.510942 7.911687 6.557434
v -10.006705 7.543267 5.730332
v -12.359826 4.289456 6.554058
v -11.761477 4.097813 5.730332
v -14.363347 4.941063 7.781311
v -18.363688 0.275388 8.244885
v -19.533503 -6.070427 7.124334
v -19.990713 -6.219505 6.243936
v -17.301430 -12.292772 -2.456953
v -12.359827 -16.728468 -11.171190
v -11.620286 -15.716946 -12.758639
v -4.802915 -14.501047 -12.975415
v -0.002509 -12.052148 -10.454163
v -0.002509 -15.261256 -12.975415
v -6.113968 -18.523621 -12.758638
v -0.002510 -19.490391 -12.758638
v -0.002510 -20.742489 -11.171189
v -6.497163 -19.713961 -11.171189
v -12.574987 -17.024437 -2.456952
v -17.005604 -12.077661 6.243936
v -16.615664 -11.794470 7.124334
v -17.462759 -5.397536 8.244885
v -15.102939 0.275387 7.781311
v -12.991816 0.275387 6.554058
v -12.366571 0.275387 5.730332
v -12.359827 -3.738682 6.554058
v -11.761477 -3.544901 5.730332
v -14.363348 -4.390290 7.781311
v -14.854146 -10.514674 8.244885
v -12.070751 -16.336630 7.124335
v -12.359828 -16.728468 6.243936
v -6.611466 -20.063185 -2.456952
v -0.002510 -21.108770 -2.456952
v -6.497164 -19.713961 6.243936
v -0.002511 -20.742489 6.243937
v -0.002511 -20.257013 7.124335
v -6.349273 -19.253996 7.124335
v -10.793327 -14.577676 8.244886
v -12.218636 -8.600231 7.781311
v -10.510943 -7.360913 6.557434
v -10.006706 -6.992495 5.730332
v -7.640135 -10.233575 6.557434
v -7.270339 -9.726768 5.730332
v -8.877225 -11.939272 7.781311
v -5.676949 -17.184156 8.244886
v -0.002511 -18.082802 8.244886
v -4.668469 -14.083651 7.781312
v -4.016290 -12.079800 6.557434
v -3.828070 -11.483583 5.730333
v -0.002510 -12.714399 6.557434
v -0.002510 -12.088349 5.730333
v -0.002510 -14.822577 7.781312
v -1.535421 -4.462692 -0.899526
v -1.831249 -3.038095 -2.773776
v -1.548866 -4.475471 -2.780428
v -0.197525 -4.929070 -2.740428
v -1.804360 -3.042322 -0.886175
v -0.829463 -2.118120 -2.710404
v -1.058068 -4.028286 -0.899526
v -0.177335 -4.897098 -0.899526
v 0.884929 -3.975032 -2.737101
v 0.858040 -3.981445 -0.902851
v 0.595846 -2.546159 -2.727077
v -0.311776 -4.266772 -0.899526
v -1.058068 -4.028286 -0.292574
v -1.206004 -3.248884 -0.892875
v -0.654683 -2.739941 -0.902851
v -0.802574 -2.116029 -0.902851
v 0.582402 -2.546159 -0.916199
v 0.105048 -2.976335 -0.909550
v 0.105048 -2.976335 -0.299226
v -0.654683 -2.739941 -0.295899
v -1.206004 -3.248884 -0.285923
v 0.252939 -3.764242 -0.292574
v -0.311776 -4.266772 -0.292574
v 0.252939 -3.764242 -0.902851
v -5.219738 -0.546582 -0.899527
v -4.715502 0.820531 -2.773777
v -5.233183 -0.552996 -2.780428
v -4.325561 -1.651788 -2.740428
v -4.688612 0.799248 -0.886175
v -3.377605 1.071795 -2.710404
v -4.581055 -0.429477 -0.899527
v -4.291927 -1.632595 -0.899527
v -2.906951 -1.411165 -2.737101
v -2.927141 -1.402614 -0.902851
v -2.396009 -0.044052 -2.727077
v -4.070067 -1.025740 -0.899527
v -4.581055 -0.429477 -0.292574
v -4.291927 0.309448 -0.892875
v -3.559131 0.450023 -0.902851
v -3.350716 1.056926 -0.902851
v -2.402709 -0.039776 -0.916199
v -3.034698 -0.152654 -0.909551
v -3.034698 -0.152654 -0.299226
v -3.559131 0.450023 -0.295899
v -4.291927 0.309448 -0.285923
v -3.323827 -0.900083 -0.292574
v -4.070067 -1.025740 -0.292574
v -3.323827 -0.897946 -0.902851
v -3.068332 3.128903 -0.899526
v -2.980919 4.583286 -2.773777
v -3.081777 3.118214 -2.780428
v -1.898466 2.328217 -2.740428
v -2.954030 4.570555 -0.886175
v -1.777470 5.207245 -2.710404
v -2.496866 3.422733 -0.899526
v -1.871582 2.355867 -0.899526
v -0.607603 2.967046 -2.737101
v -0.634493 2.969184 -0.902851
v -0.513490 4.423615 -2.727077
v -1.837993 2.998970 -0.899526
v -2.496866 3.422733 -0.292574
v -2.436343 4.214918 -0.892875
v -1.770770 4.562004 -0.902851
v -1.743835 5.202970 -0.902851
v -0.520241 4.423615 -0.916199
v -1.098401 4.134012 -0.909550
v -1.098401 4.134012 -0.299226
v -1.770770 4.562004 -0.295899
v -2.429598 4.214918 -0.285923
v -1.158925 3.335417 -0.292574
v -1.837993 2.998970 -0.292574
v -1.158925 3.335417 -0.902851
v 1.463135 2.428267 -0.899526
v 1.550548 3.882697 -2.773776
v 1.449690 2.417626 -2.780428
v 2.639701 1.627582 -2.740428
v 1.577437 3.869918 -0.886175
v 2.760697 4.506656 -2.710404
v 2.041346 2.722147 -0.899526
v 2.666590 1.655278 -0.899526
v 3.930564 2.266458 -2.737101
v 3.903674 2.268596 -0.902851
v 4.024677 3.723026 -2.727077
v 2.700225 2.298382 -0.899526
v 2.041346 2.722147 -0.292574
v 2.101824 3.514328 -0.892875
v 2.767448 3.861414 -0.902851
v 2.787587 4.502380 -0.902851
v 4.011232 3.723026 -0.916199
v 3.439766 3.433377 -0.909550
v 3.439766 3.433377 -0.299226
v 2.767448 3.861414 -0.295898
v 2.101824 3.514328 -0.285923
v 3.379242 2.634829 -0.292574
v 2.700225 2.298382 -0.292574
v 3.379242 2.634829 -0.902851
v 2.122013 -1.745474 -0.899526
v 2.525398 -0.346435 -2.773776
v 2.108569 -1.751886 -2.780428
v 3.090159 -2.784644 -2.740428
v 2.552288 -0.365581 -0.886175
v 3.843151 -0.003577 -2.710404
v 2.747252 -1.585755 -0.899526
v 3.123748 -2.765500 -0.899526
v 4.488585 -2.446062 -2.737101
v 4.468441 -2.439696 -0.902851
v 4.898709 -1.047023 -2.727077
v 3.298574 -2.143679 -0.899526
v 2.747252 -1.585755 -0.292574
v 2.982557 -0.827684 -0.892875
v 3.708704 -0.633901 -0.902851
v 3.870040 -0.014218 -0.902851
v 4.891964 -1.042747 -0.916199
v 4.266725 -1.200330 -0.909550
v 4.266725 -1.200330 -0.299226
v 3.708704 -0.633901 -0.295898
v 2.982557 -0.827684 -0.285923
v 4.031421 -1.964813 -0.292574
v 3.298574 -2.143679 -0.292574
v 4.031421 -1.964813 -0.902851
v 0.266385 0.239185 -12.538492
v 12.563184 -3.808947 -10.574212
v 10.687410 -7.492936 -10.574213
v 13.208613 0.275385 -10.574212
v 7.762823 -10.414578 -10.574213
v 12.563185 4.359718 -10.574212
v 4.078454 -12.292773 -10.574213
v 10.687411 8.043705 -10.574213
v -0.002509 -12.940104 -10.574213
v 7.762825 10.967485 -10.574213
v -4.090258 -12.292773 -10.574213
v 4.078456 12.843545 -10.574213
v -7.774581 -10.414577 -10.574213
v -0.002507 13.490877 -10.574213
v -10.692468 -7.492934 -10.574213
v -4.090256 12.843545 -10.574213
v -12.574986 -3.808945 -10.574214
v -7.774579 10.967487 -10.574213
v -13.220420 0.275387 -10.574214
v -10.692467 8.043707 -10.574213
v -12.574986 4.359720 -10.574214
v 7.762823 -10.414578 5.683637
v 10.687409 -7.492936 5.683637
v 7.675410 -10.293199 6.790836
v 4.031420 -12.147971 6.790835
v 4.078454 -12.292773 5.683636
v -0.002510 -12.786799 6.790835
v -0.002510 -12.940104 5.683636
v -4.043180 -12.147971 6.790835
v -4.090258 -12.292773 5.683636
v -7.680469 -10.293197 6.790835
v -7.774581 -10.414577 5.683636
v -10.571472 -7.401340 6.790835
v -10.692469 -7.492934 5.683636
v -12.427051 -3.759966 6.790835
v -12.574987 -3.808945 5.683636
v -13.065784 0.275387 6.790835
v -13.220421 0.275387 5.683636
v -12.427050 4.312876 6.790835
v -12.574986 4.359720 5.683636
v -10.571471 7.954252 6.790835
v -10.692468 8.043707 5.683636
v -7.680468 10.843970 6.790835
v -7.774580 10.967487 5.683636
v -4.043178 12.698744 6.790835
v -4.090256 12.843545 5.683636
v -0.002508 13.337571 6.790835
v -0.002508 13.490877 5.683636
v 4.031422 12.698744 6.790835
v 4.078456 12.843545 5.683636
v 7.675411 10.843968 6.790836
v 7.762824 10.967485 5.683637
v 10.566409 7.954250 6.790836
v 10.687410 8.043705 5.683637
v 12.421992 4.312874 6.790836
v 12.563184 4.359718 5.683637
v 13.060727 0.275385 6.790836
v 13.208612 0.275385 5.683637
v 12.421991 -3.759968 6.790836
v 12.563183 -3.808947 5.683637
v 10.566408 -7.401342 6.790836
v 10.270580 -7.190553 6.947613
v 12.072385 -3.649228 6.947613
v 12.697676 0.275385 6.947613
v 12.072386 4.199999 6.947613
v 10.270581 7.741325 6.947613
v 7.460251 10.552227 6.947613
v 3.923865 12.355885 6.947612
v -0.002508 12.977706 6.947612
v -3.928875 12.355885 6.947612
v -7.472053 10.552229 6.947612
v -10.282338 7.741327 6.947612
v -12.084194 4.200001 6.947612
v -12.702733 0.275387 6.947612
v -12.084195 -3.649226 6.947612
v -10.282339 -7.190551 6.947612
v -7.472054 -9.999316 6.947612
v -3.928877 -11.802974 6.947612
v -0.002510 -12.424796 6.947612
v 3.923863 -11.802974 6.947612
v 7.460250 -9.999318 6.947613
v 6.861895 -9.173075 6.257286
v 3.607845 -10.831928 6.257285
v -0.002510 -11.402632 6.257285
v -3.612911 -10.831928 6.257285
v -6.866960 -9.173073 6.257285
v -9.455384 -6.587924 6.257285
v -11.109299 -3.334064 6.257285
v -11.680809 0.275387 6.257285
v -11.109298 3.884836 6.257285
v -9.455383 7.140788 6.257285
v -6.866958 9.723847 6.257285
v -3.612909 11.382699 6.257285
v -0.002508 11.953403 6.257285
v 3.607847 11.382699 6.257285
v 6.861896 9.723845 6.257286
v 9.443626 7.140787 6.257286
v 11.104240 3.884834 6.257286
v 11.675746 0.275385 6.257286
v 11.104239 -3.334065 6.257286
v 9.443625 -6.587924 6.257286
v 9.262100 -6.453765 5.937134
v 10.882380 -3.261664 5.937134
v 11.447142 0.275385 5.937134
v 10.882380 3.814573 5.937134
v 9.262101 7.004537 5.937134
v 6.727404 9.538613 5.937134
v 3.533879 11.165498 5.937133
v -0.002508 11.725560 5.937133
v -3.538941 11.165498 5.937133
v -6.732512 9.538615 5.937133
v -9.267159 7.004538 5.937133
v -10.894183 3.814574 5.937133
v -11.452205 0.275387 5.937133
v -10.894184 -3.261663 5.937133
v -9.267159 -6.453764 5.937133
v -6.732513 -8.987842 5.937133
v -3.538942 -10.612587 5.937133
v -0.002510 -11.172649 5.937133
v 3.533877 -10.612587 5.937133
v 6.727403 -8.987844 5.937134
v 5.981162 -7.959267 1.364902
v 3.143937 -9.403055 1.364902
v -0.002510 -9.901359 1.364902
v -3.149001 -9.403055 1.364902
v -5.986220 -7.959266 1.364902
v -8.238490 -5.706286 1.364902
v -9.683989 -2.869824 1.364901
v -10.181531 0.275387 1.364901
v -9.683989 3.420596 1.364901
v -8.238489 6.259197 1.364902
v -5.986219 8.510038 1.364902
v -3.149000 9.955965 1.364902
v -0.002508 10.454267 1.364902
v 3.143939 9.955965 1.364902
v 5.981163 8.510038 1.364902
v 8.233426 6.259196 1.364902
v 9.678931 3.420594 1.364902
v 10.176423 0.275385 1.364902
v 9.678931 -2.869825 1.364902
v 8.233425 -5.706287 1.364902
v 7.977932 -5.521058 1.128128
v 9.376404 -2.771914 1.128128
v 9.860451 0.275385 1.128129
v 9.376404 3.324775 1.128128
v 7.977933 6.073918 1.128128
v 5.792893 8.254544 1.128128
v 3.043081 9.655720 1.128128
v -0.002508 10.139105 1.128128
v -3.054887 9.655720 1.128128
v -5.804694 8.254544 1.128128
v -7.982995 6.073919 1.128128
v -9.381415 3.324776 1.128128
v -9.865514 0.275387 1.128128
v -9.381415 -2.771912 1.128128
v -7.982996 -5.521057 1.128128
v -5.804695 -7.703724 1.128128
v -3.054889 -9.104948 1.128128
v -0.002510 -9.588333 1.128128
v 3.043079 -9.104948 1.128128
v 5.792892 -7.703725 1.128128
v 4.192757 -5.501864 -0.435997
v 2.202681 -6.515523 -0.435997
v -0.002509 -6.864748 -0.435997
v -2.207739 -6.515523 -0.435997
v -4.197815 -5.501863 -0.435997
v -5.777806 -3.921823 -0.435997
v -6.792990 -1.930751 -0.435997
v -7.142591 0.275387 -0.435997
v -6.792990 2.481524 -0.435997
v -5.777805 4.472595 -0.435997
v -4.197814 6.052637 -0.435997
v -2.207738 7.066295 -0.435997
v -0.002508 7.415519 -0.435997
v 2.202682 7.066295 -0.435997
v 4.192758 6.052636 -0.435997
v 5.772703 4.472594 -0.435997
v 6.787927 2.481523 -0.435997
v 7.137534 0.275386 -0.435997
v 6.787927 -1.930752 -0.435997
v 5.772702 -3.921824 -0.435997
v 4.939043 -3.314920 -1.169651
v 5.806337 -1.611314 -1.169651
v 6.108910 0.275386 -1.169651
v 5.806337 2.164222 -1.169651
v 4.939044 3.867828 -1.169651
v 3.587657 5.217886 -1.169651
v 1.886710 6.086698 -1.169651
v -0.002508 6.384854 -1.169651
v -1.891772 6.086698 -1.169651
v -3.592714 5.217887 -1.169651
v -4.944106 3.867829 -1.169652
v -5.811394 2.164222 -1.169652
v -6.113967 0.275387 -1.169652
v -5.811394 -1.611313 -1.169652
v -4.944106 -3.314919 -1.169652
v -3.592714 -4.667115 -1.169651
v -1.891773 -5.533836 -1.169651
v -0.002509 -5.834081 -1.169651
v 1.886709 -5.533836 -1.169651
v 3.587656 -4.667116 -1.169651
v 3.110303 -4.013370 -2.473627
v 1.631215 -4.765075 -2.473628
v -0.002509 -5.024892 -2.473628
v -1.643024 -4.765075 -2.473628
v -3.122112 -4.013370 -2.473628
v -4.291927 -2.840038 -2.473628
v -5.044964 -1.362185 -2.473628
v -5.307152 0.275387 -2.473628
v -5.044963 1.912958 -2.473628
v -4.291926 3.390809 -2.473628
v -3.122111 4.564142 -2.473628
v -1.643023 5.315847 -2.473628
v -0.002508 5.575663 -2.473628
v 1.631216 5.315847 -2.473628
v 3.110304 4.564142 -2.473627
v 4.286870 3.390809 -2.473627
v 5.039901 1.912957 -2.473627
v 5.295394 0.275386 -2.473627
v 5.039901 -1.362185 -2.473627
v 4.286870 -2.840039 -2.473627
v 3.547323 -2.305536 -2.483651
v 4.172613 -1.081086 -2.483651
v 4.387727 0.275386 -2.483651
v 4.172613 1.631858 -2.483651
v 3.547323 2.856306 -2.483651
v 2.579178 3.829490 -2.483651
v 1.355583 4.451264 -2.483651
v -0.002508 4.666376 -2.483651
v -1.360640 4.451264 -2.483651
v -2.584234 3.829491 -2.483651
v -3.559130 2.856306 -2.483652
v -4.177670 1.631859 -2.483652
v -4.392785 0.275386 -2.483652
v -4.177670 -1.081086 -2.483652
v -3.559131 -2.305535 -2.483652
v -2.584235 -3.276580 -2.483651
v -1.360641 -3.900493 -2.483651
v -0.002509 -4.115604 -2.483651
v 1.355583 -3.900493 -2.483651
v 2.579177 -3.276581 -2.483651
v 1.200947 -1.342992 -2.310202
v 0.602546 -1.647513 -2.310202
v -0.063032 -1.754024 -2.310202
v -0.721906 -1.647513 -2.310202
v -1.320306 -1.342992 -2.310202
v -1.797609 -0.868159 -2.310202
v -2.100187 -0.271896 -2.310202
v -2.207738 0.392490 -2.310202
v -2.100187 1.054788 -2.310202
v -1.797608 1.651003 -2.310202
v -0.990844 1.044147 0.494476
v -1.158925 0.716204 0.494476
v -1.219449 0.349925 0.494476
v -1.158925 -0.016356 0.494476
v -0.990844 -0.346435 0.494476
v -0.728651 -0.606205 0.494476
v -0.399189 -0.774427 0.494476
v -0.036143 -0.831958 0.494476
v 0.333608 -0.774427 0.494476
v -0.002509 -0.099398 1.214827
v -0.116811 -0.080253 1.214827
v -0.224414 -0.026997 1.214827
v -0.305082 0.056045 1.214827
v -0.358855 0.160372 1.214827
v -0.379050 0.275386 1.214827
v -0.358855 0.392490 1.214827
v -0.305082 0.496865 1.214827
v -0.022699 0.294531 1.214827
v 0.111748 -0.080253 1.214827
v 0.219351 -0.026997 1.214827
v 0.663070 -0.606205 0.494476
v 0.300019 0.056045 1.214827
v 0.925263 -0.346435 0.494476
v 0.353797 0.160372 1.214827
v 1.093338 -0.016356 0.494476
v 0.373987 0.275386 1.214827
v 1.147168 0.349925 0.494476
v 0.353797 0.392490 1.214827
v 1.093338 0.716204 0.494476
v 0.300019 0.496865 1.214827
v 0.925263 1.044147 0.494476
v 0.219351 0.579907 1.214827
v 0.111748 0.631024 1.214827
v 0.663070 1.306053 0.494476
v 1.671550 1.651003 -2.310202
v 1.980822 1.054788 -2.310202
v 2.081680 0.392490 -2.310202
v 1.980822 -0.271896 -2.310202
v 1.671549 -0.868159 -2.310202
v 1.200947 2.125884 -2.310202
v 0.333608 1.474276 0.494476
v -0.002509 0.650170 1.214827
v -0.036143 1.531760 0.494476
v 0.602546 2.430405 -2.310202
v -0.063032 2.536868 -2.310202
v -0.721905 2.430405 -2.310202
v -0.399188 1.474276 0.494476
v -0.116811 0.631024 1.214827
v -0.224414 0.579907 1.214827
v -0.728651 1.306053 0.494476
v -1.320306 2.125884 -2.310202
vn -0.1596 0.5973 -0.7860
vn -0.0660 0.4167 -0.9067
vn -0.0974 0.6149 -0.7826
vn -0.1110 0.2811 -0.9532
vn -0.3367 0.5188 -0.7858
vn 0.0723 -0.4564 -0.8868
vn -0.1927 0.2330 -0.9532
vn -0.4806 0.3894 -0.7858
vn 0.1644 -0.4278 -0.8888
vn 0.2423 -0.9057 -0.3479
vn 0.1468 -0.9273 -0.3444
vn 0.1564 -0.9876 -0.0139
vn 0.3092 -0.9510 -0.0000
vn 0.1506 -0.9520 0.2664
vn 0.5105 -0.7865 -0.3475
vn 0.2886 -0.3562 -0.8887
vn -0.2550 0.1622 -0.9532
vn -0.5771 0.2219 -0.7860
vn -0.2925 0.0752 -0.9533
vn -0.6171 0.0326 -0.7862
vn 0.3843 -0.2493 -0.8889
vn 0.7284 -0.5904 -0.3477
vn 0.5879 -0.8089 0.0001
vn 0.3457 -0.8991 0.2687
vn 0.1802 -0.6735 0.7168
vn 0.1094 -0.6922 0.7134
vn 0.0426 -0.2691 0.9622
vn 0.0671 -0.1528 0.9860
vn -0.0420 0.2651 0.9633
vn 0.3798 -0.5852 0.7165
vn 0.6065 -0.7484 0.2684
vn 0.8089 -0.5879 -0.0000
vn 0.8751 -0.3364 -0.3479
vn 0.4427 -0.1185 -0.8888
vn -0.3014 -0.0187 -0.9533
vn -0.5971 -0.1596 -0.7861
vn -0.2810 -0.1113 -0.9532
vn -0.5187 -0.3367 -0.7859
vn 0.4577 0.0242 -0.8888
vn 0.9363 -0.0495 -0.3477
vn 0.9510 -0.3092 -0.0000
vn 0.8080 -0.5243 0.2688
vn 0.5421 -0.4392 0.7164
vn 0.1110 -0.1246 0.9860
vn -0.0919 0.3142 0.9449
vn -0.0962 0.6080 0.7881
vn -0.1971 0.6322 0.7493
vn -0.1251 0.7910 0.5989
vn -0.2859 0.7441 0.6037
vn -0.3827 0.5401 0.7495
vn -0.5021 0.6196 0.6033
vn -0.1845 0.2705 0.9449
vn 0.1441 -0.0841 0.9860
vn 0.6506 -0.2500 0.7171
vn 0.9301 -0.2490 0.2700
vn 1.0000 -0.0000 -0.0000
vn 0.9058 0.2423 -0.3477
vn 0.4276 0.1644 -0.8889
vn -0.2331 -0.1926 -0.9532
vn -0.3895 -0.4805 -0.7858
vn -0.1621 -0.2553 -0.9532
vn -0.2218 -0.5774 -0.7857
vn 0.3558 0.2885 -0.8889
vn 0.7863 0.5105 -0.3480
vn 0.9510 0.3092 0.0001
vn 0.9616 0.0509 0.2696
vn 0.6962 -0.0368 0.7169
vn 0.1634 -0.0357 0.9859
vn -0.2590 0.2001 0.9449
vn -0.5313 0.3957 0.7491
vn -0.6697 0.4345 0.6022
vn -0.6279 0.2124 0.7487
vn -0.7706 0.2063 0.6030
vn -0.3081 0.1104 0.9449
vn 0.1664 0.0167 0.9859
vn 0.6732 0.1801 0.7172
vn 0.8989 0.3453 0.2698
vn 0.8088 0.5881 0.0001
vn 0.5902 0.7286 -0.3475
vn 0.2496 0.3845 -0.8887
vn -0.0754 -0.2928 -0.9532
vn -0.0328 -0.6177 -0.7857
vn 0.0189 -0.3018 -0.9532
vn 0.1600 -0.5976 -0.7856
vn 0.1184 0.4427 -0.8888
vn 0.3364 0.8752 -0.3477
vn 0.5877 0.8091 -0.0000
vn 0.7482 0.6067 0.2685
vn 0.5848 0.3794 0.7169
vn 0.1530 0.0671 0.9859
vn -0.3274 0.0097 0.9448
vn -0.6622 0.0079 0.7493
vn -0.7963 -0.0423 0.6034
vn -0.6324 -0.1974 0.7491
vn -0.7454 -0.2864 0.6020
vn -0.3143 -0.0920 0.9449
vn 0.1245 0.1110 0.9860
vn 0.4391 0.5421 0.7165
vn 0.5243 0.8081 0.2685
vn 0.3092 0.9510 -0.0000
vn 0.0494 0.9363 -0.3476
vn -0.0241 0.4578 -0.8887
vn 0.1111 -0.2812 -0.9532
vn 0.3363 -0.5189 -0.7859
vn 0.1924 -0.2330 -0.9533
vn 0.4804 -0.3892 -0.7860
vn -0.1644 0.4278 -0.8888
vn -0.2423 0.9058 -0.3475
vn -0.0000 1.0000 -0.0000
vn 0.2490 0.9305 0.2687
vn 0.2504 0.6511 0.7165
vn 0.0842 0.1441 0.9860
vn -0.2703 -0.1845 0.9449
vn -0.5408 -0.3831 0.7488
vn -0.6203 -0.5024 0.6024
vn -0.3958 -0.5313 0.7490
vn -0.4343 -0.6694 0.6028
vn -0.2001 -0.2590 0.9449
vn 0.0356 0.1631 0.9860
vn 0.0368 0.6965 0.7166
vn -0.0507 0.9619 0.2687
vn -0.3089 0.9511 -0.0000
vn -0.5103 0.7865 -0.3478
vn -0.2885 0.3560 -0.8888
vn 0.2552 -0.1620 -0.9532
vn 0.5772 -0.2217 -0.7859
vn 0.2927 -0.0753 -0.9532
vn 0.6176 -0.0326 -0.7858
vn -0.3847 0.2496 -0.8887
vn -0.7285 0.5904 -0.3475
vn -0.5878 0.8090 0.0001
vn -0.3454 0.8991 0.2691
vn -0.1804 0.6738 0.7165
vn -0.0166 0.1661 0.9860
vn -0.1103 -0.3082 0.9449
vn -0.2123 -0.6278 0.7489
vn -0.2063 -0.7708 0.6027
vn -0.0079 -0.6625 0.7490
vn 0.0421 -0.7970 0.6026
vn -0.0097 -0.3274 0.9448
vn -0.0671 0.1529 0.9860
vn -0.3792 0.5846 0.7172
vn -0.6062 0.7482 0.2697
vn -0.8090 0.5878 -0.0000
vn -0.8753 0.3363 -0.3475
vn -0.4429 0.1184 -0.8887
vn 0.3017 0.0189 -0.9532
vn 0.5974 0.1597 -0.7859
vn 0.2811 0.1110 -0.9532
vn 0.5188 0.3364 -0.7859
vn -0.4577 -0.0242 -0.8888
vn -0.9363 0.0495 -0.3477
vn -0.9510 0.3092 -0.0000
vn -0.8082 0.5243 0.2683
vn -0.5414 0.4390 0.7170
vn -0.1110 0.1247 0.9860
vn 0.0919 -0.3143 0.9449
vn 0.1973 -0.6329 0.7487
vn 0.2866 -0.7455 0.6017
vn 0.3832 -0.5407 0.7489
vn 0.5026 -0.6199 0.6026
vn 0.1844 -0.2704 0.9449
vn -0.1439 0.0841 0.9860
vn -0.6515 0.2502 0.7162
vn -0.9306 0.2489 0.2682
vn -1.0000 -0.0000 -0.0000
vn -0.9057 -0.2424 -0.3477
vn -0.4280 -0.1644 -0.8887
vn 0.2330 0.1925 -0.9532
vn 0.3892 0.4803 -0.7860
vn 0.1620 0.2551 -0.9532
vn 0.2217 0.5773 -0.7859
vn -0.3563 -0.2886 -0.8887
vn -0.7868 -0.5103 -0.3472
vn -0.9510 -0.3092 0.0001
vn -0.9619 -0.0508 0.2687
vn -0.6967 0.0368 0.7164
vn -0.1630 0.0355 0.9860
vn 0.2590 -0.2001 0.9449
vn 0.5314 -0.3961 0.7488
vn 0.6688 -0.4344 0.6033
vn 0.6271 -0.2122 0.7495
vn 0.7690 -0.2054 0.6053
vn 0.3085 -0.1106 0.9448
vn -0.1662 -0.0165 0.9860
vn -0.6742 -0.1803 0.7162
vn -0.8993 -0.3457 0.2678
vn -0.8091 -0.5876 0.0001
vn -0.5905 -0.7283 -0.3477
vn -0.2493 -0.3844 -0.8889
vn 0.0752 0.2928 -0.9532
vn 0.0973 0.6149 -0.7826
vn 0.0287 0.1812 -0.9830
vn -0.1184 -0.4427 -0.8888
vn -0.0722 -0.4565 -0.8868
vn -0.1468 -0.9273 -0.3444
vn -0.3363 -0.8752 -0.3477
vn -0.5880 -0.8089 -0.0000
vn -0.7485 -0.6062 0.2688
vn -0.5854 -0.3799 0.7162
vn -0.1526 -0.0670 0.9860
vn 0.3276 -0.0096 0.9448
vn 0.6619 -0.0077 0.7496
vn 0.7952 0.0417 0.6049
vn 0.6314 0.1971 0.7500
vn 0.7432 0.2860 0.6048
vn 0.3147 0.0920 0.9447
vn -0.1245 -0.1110 0.9860
vn -0.4389 -0.5413 0.7172
vn -0.5242 -0.8078 0.2697
vn -0.3089 -0.9511 -0.0000
vn -0.1564 -0.9876 0.0139
vn -0.2488 -0.9305 0.2690
vn -0.1507 -0.9519 0.2669
vn -0.1095 -0.6925 0.7131
vn -0.2500 -0.6508 0.7169
vn -0.0842 -0.1441 0.9860
vn 0.2704 0.1847 0.9449
vn 0.5401 0.3831 0.7494
vn 0.6201 0.5023 0.6027
vn 0.3956 0.5312 0.7492
vn 0.4342 0.6691 0.6032
vn 0.2001 0.2590 0.9449
vn -0.0355 -0.1630 0.9860
vn -0.0097 -0.0612 0.9981
vn 0.1103 0.3083 0.9449
vn 0.2122 0.6276 0.7491
vn 0.2063 0.7708 0.6027
vn 0.1117 0.7066 0.6988
vn 0.1251 0.7911 0.5988
vn 0.0613 0.3871 0.9200
vn -0.6431 -0.5702 0.5112
vn -0.9909 0.1342 0.0126
vn -0.7515 -0.6596 0.0099
vn 0.0145 -0.9998 0.0130
vn -0.4769 0.2655 0.8379
vn -0.2223 0.9750 0.0049
vn -0.2920 -0.2651 0.9189
vn 0.2535 -0.6082 0.7522
vn 0.8707 -0.4917 0.0106
vn 0.5464 -0.0699 0.8346
vn 0.8583 0.5131 0.0093
vn 0.1585 -0.7396 0.6541
vn -0.6459 -0.5747 0.5025
vn -0.8227 0.2731 0.4986
vn -0.0120 0.6627 0.7488
vn -0.1005 0.4897 0.8661
vn 0.4772 0.6380 0.6044
vn 0.2997 0.2668 0.9160
vn 0.6458 0.5760 0.5011
vn -0.3709 0.8591 0.3528
vn -0.4741 0.1620 0.8654
vn 0.5788 -0.3259 0.7475
vn 0.1798 -0.8478 0.4990
vn 0.7918 -0.1094 0.6010
vn -0.8470 -0.1440 0.5118
vn -0.7694 0.6386 0.0140
vn -0.9864 -0.1641 0.0076
vn -0.5146 -0.8573 0.0134
vn -0.2637 0.4776 0.8381
vn 0.3266 0.9451 0.0058
vn -0.3872 -0.0707 0.9193
vn -0.1052 -0.6503 0.7524
vn 0.4799 -0.8773 0.0097
vn 0.4272 -0.3487 0.8342
vn 0.9998 -0.0185 0.0067
vn -0.2575 -0.7123 0.6530
vn -0.8516 -0.1465 0.5033
vn -0.5533 0.6676 0.4982
vn 0.3385 0.5702 0.7485
vn 0.1733 0.4687 0.8662
vn 0.7429 0.2894 0.6036
vn 0.3950 0.0690 0.9161
vn 0.8523 0.1500 0.5011
vn 0.1376 0.9256 0.3526
vn -0.3167 0.3889 0.8652
vn 0.3187 -0.5830 0.7473
vn -0.2955 -0.8152 0.4982
vn 0.6151 -0.5111 0.6003
vn -0.7697 -0.3823 0.5113
vn -0.9213 0.3885 0.0131
vn -0.8975 -0.4409 0.0089
vn -0.2469 -0.9689 0.0137
vn -0.3905 0.3810 0.8381
vn 0.0404 0.9992 0.0050
vn -0.3508 -0.1800 0.9190
vn 0.0862 -0.6528 0.7526
vn 0.7125 -0.7015 0.0110
vn 0.5094 -0.2112 0.8342
vn 0.9628 0.2700 0.0078
vn -0.0398 -0.7559 0.6535
vn -0.7724 -0.3849 0.5052
vn -0.7211 0.4784 0.5011
vn 0.1620 0.6426 0.7488
vn 0.0315 0.4989 0.8661
vn 0.6284 0.4907 0.6036
vn 0.3591 0.1797 0.9158
vn 0.7736 0.3883 0.5007
vn -0.1342 0.9253 0.3546
vn -0.4141 0.2806 0.8659
vn 0.4726 -0.4659 0.7480
vn -0.0483 -0.8656 0.4984
vn 0.7358 -0.3113 0.6015
vn -0.7691 -0.3832 0.5116
vn -0.9211 0.3891 0.0131
vn -0.8970 -0.4420 0.0089
vn -0.2450 -0.9694 0.0137
vn -0.3903 0.3813 0.8380
vn 0.0410 0.9991 0.0056
vn 0.0867 -0.6530 0.7524
vn 0.7126 -0.7015 0.0110
vn 0.5091 -0.2101 0.8347
vn 0.9624 0.2716 0.0099
vn -0.7730 -0.3870 0.5027
vn -0.7228 0.4784 0.4987
vn 0.6272 0.4910 0.6046
vn 0.7737 0.3882 0.5007
vn -0.1330 0.9262 0.3528
vn -0.4153 0.2801 0.8655
vn -0.8349 -0.2039 0.5112
vn -0.8131 0.5819 0.0138
vn -0.9723 -0.2335 0.0077
vn -0.4538 -0.8910 0.0127
vn -0.2967 0.4577 0.8381
vn 0.2601 0.9656 0.0050
vn -0.3814 -0.0981 0.9192
vn -0.0596 -0.6563 0.7521
vn 0.5408 -0.8411 0.0088
vn 0.4512 -0.3169 0.8343
vn 0.9986 0.0533 0.0064
vn -0.2045 -0.7288 0.6534
vn -0.8390 -0.2069 0.5032
vn -0.5997 0.6263 0.4982
vn 0.3006 0.5900 0.7493
vn 0.1402 0.4797 0.8661
vn 0.7211 0.3411 0.6031
vn 0.3904 0.0954 0.9157
vn 0.8408 0.2063 0.5004
vn 0.0739 0.9326 0.3533
vn -0.3436 0.3652 0.8652
vn 0.3590 -0.5585 0.7478
vn -0.2363 -0.8342 0.4983
vn 0.6492 -0.4659 0.6013
vn 0.0014 -0.0002 -1.0000
vn 0.1427 -0.0464 -0.9887
vn 0.1210 -0.0881 -0.9887
vn 0.1501 -0.0000 -0.9887
vn 0.0875 -0.1208 -0.9888
vn 0.1424 0.0463 -0.9887
vn 0.0456 -0.1411 -0.9889
vn 0.1206 0.0878 -0.9888
vn -0.0002 -0.1474 -0.9891
vn 0.0870 0.1202 -0.9889
vn -0.0455 -0.1392 -0.9892
vn 0.0453 0.1404 -0.9891
vn -0.0858 -0.1176 -0.9893
vn -0.0002 0.1466 -0.9892
vn -0.1173 -0.0851 -0.9894
vn -0.0452 0.1385 -0.9893
vn -0.1373 -0.0446 -0.9895
vn -0.0854 0.1171 -0.9894
vn -0.1441 -0.0000 -0.9896
vn -0.1169 0.0848 -0.9895
vn -0.1371 0.0445 -0.9896
vn 0.5392 -0.8314 0.1345
vn 0.7698 -0.6239 0.1349
vn 0.5004 -0.6178 0.6065
vn 0.2852 -0.7424 0.6062
vn 0.2562 -0.9569 0.1364
vn 0.0420 -0.7938 0.6067
vn -0.0521 -0.9892 0.1367
vn -0.2053 -0.7677 0.6070
vn -0.3555 -0.9247 0.1362
vn -0.4330 -0.6668 0.6065
vn -0.6240 -0.7694 0.1368
vn -0.6187 -0.5011 0.6051
vn -0.8309 -0.5394 0.1368
vn -0.7424 -0.2855 0.6061
vn -0.9566 -0.2561 0.1388
vn -0.7932 -0.0418 0.6075
vn -0.9890 0.0522 0.1383
vn -0.7675 0.2052 0.6073
vn -0.9245 0.3556 0.1372
vn -0.6675 0.4334 0.6055
vn -0.7697 0.6238 0.1360
vn -0.5012 0.6180 0.6057
vn -0.5394 0.8307 0.1378
vn -0.2853 0.7424 0.6062
vn -0.2559 0.9570 0.1364
vn -0.0419 0.7944 0.6060
vn 0.0523 0.9892 0.1367
vn 0.2056 0.7688 0.6056
vn 0.3552 0.9249 0.1359
vn 0.4328 0.6675 0.6059
vn 0.6237 0.7699 0.1350
vn 0.6175 0.5006 0.6067
vn 0.8313 0.5394 0.1340
vn 0.7417 0.2850 0.6072
vn 0.9575 0.2559 0.1327
vn 0.7943 0.0419 0.6060
vn 0.9898 -0.0522 0.1325
vn 0.7679 -0.2054 0.6067
vn 0.9251 -0.3553 0.1341
vn 0.6667 -0.4325 0.6070
vn -0.0723 0.0585 0.9957
vn -0.0882 0.0339 0.9955
vn -0.0936 0.0050 0.9956
vn -0.0915 -0.0246 0.9955
vn -0.0790 -0.0512 0.9956
vn -0.0585 -0.0720 0.9957
vn -0.0328 -0.0850 0.9958
vn -0.0048 -0.0906 0.9959
vn 0.0236 -0.0882 0.9958
vn 0.0491 -0.0759 0.9959
vn 0.0701 -0.0568 0.9959
vn 0.0849 -0.0324 0.9959
vn 0.0920 -0.0048 0.9957
vn 0.0883 0.0235 0.9958
vn 0.0757 0.0489 0.9959
vn 0.0568 0.0704 0.9959
vn 0.0331 0.0864 0.9957
vn 0.0049 0.0923 0.9957
vn -0.0237 0.0890 0.9957
vn -0.0508 0.0779 0.9957
vn -0.4400 0.5427 0.7155
vn -0.2499 0.6504 0.7173
vn -0.0367 0.6959 0.7172
vn 0.1799 0.6728 0.7176
vn 0.3792 0.5847 0.7171
vn 0.5411 0.4385 0.7176
vn 0.6515 0.2500 0.7162
vn 0.6975 0.0367 0.7157
vn 0.6753 -0.1802 0.7152
vn 0.5845 -0.3790 0.7175
vn 0.4384 -0.5414 0.7174
vn 0.2500 -0.6509 0.7168
vn 0.0368 -0.6971 0.7160
vn -0.1802 -0.6739 0.7165
vn -0.3798 -0.5851 0.7165
vn -0.5429 -0.4400 0.7153
vn -0.6506 -0.2500 0.7171
vn -0.6963 -0.0369 0.7168
vn -0.6724 0.1802 0.7179
vn -0.5860 0.3800 0.7157
vn -0.7021 0.5682 0.4291
vn -0.8416 0.3236 0.4324
vn -0.9006 0.0474 0.4321
vn -0.8708 -0.2328 0.4330
vn -0.7572 -0.4910 0.4308
vn -0.5682 -0.7012 0.4306
vn -0.3236 -0.8421 0.4314
vn -0.0475 -0.9014 0.4304
vn 0.2331 -0.8717 0.4311
vn 0.4911 -0.7568 0.4314
vn 0.7000 -0.5678 0.4332
vn 0.8426 -0.3234 0.4307
vn 0.9015 -0.0476 0.4301
vn 0.8723 0.2332 0.4298
vn 0.7566 0.4908 0.4320
vn 0.5677 0.7010 0.4317
vn 0.3232 0.8416 0.4326
vn 0.0475 0.9004 0.4324
vn -0.2327 0.8709 0.4330
vn -0.4907 0.7567 0.4320
vn -0.5193 0.6411 0.5651
vn -0.2958 0.7708 0.5643
vn -0.0436 0.8253 0.5630
vn 0.2136 0.7987 0.5626
vn 0.4498 0.6936 0.5627
vn 0.6417 0.5200 0.5638
vn 0.7699 0.2959 0.5655
vn 0.8239 0.0434 0.5651
vn 0.7969 -0.2130 0.5653
vn 0.6923 -0.4493 0.5647
vn 0.5202 -0.6419 0.5634
vn 0.2964 -0.7710 0.5636
vn 0.0435 -0.8245 0.5641
vn -0.2132 -0.7972 0.5648
vn -0.4489 -0.6920 0.5654
vn -0.6411 -0.5197 0.5648
vn -0.7704 -0.2957 0.5648
vn -0.8241 -0.0437 0.5648
vn -0.7969 0.2134 0.5652
vn -0.6925 0.4489 0.5648
vn -0.4275 0.3463 0.8351
vn -0.5131 0.1972 0.8354
vn -0.5492 0.0290 0.8352
vn -0.5312 -0.1420 0.8353
vn -0.4615 -0.2996 0.8350
vn -0.3461 -0.4274 0.8352
vn -0.1973 -0.5133 0.8352
vn -0.0291 -0.5499 0.8347
vn 0.1424 -0.5323 0.8345
vn 0.3004 -0.4627 0.8341
vn 0.4282 -0.3469 0.8345
vn 0.5133 -0.1973 0.8352
vn 0.5493 -0.0289 0.8351
vn 0.5310 0.1420 0.8354
vn 0.4616 0.2993 0.8351
vn 0.3473 0.4282 0.8343
vn 0.1980 0.5154 0.8338
vn 0.0290 0.5515 0.8337
vn -0.1425 0.5329 0.8341
vn -0.2992 0.4615 0.8352
vn -0.3400 0.4196 0.8416
vn -0.1937 0.5042 0.8416
vn -0.0285 0.5393 0.8416
vn 0.1396 0.5216 0.8417
vn 0.2939 0.4529 0.8417
vn 0.4195 0.3399 0.8417
vn 0.5040 0.1937 0.8417
vn 0.5396 0.0287 0.8414
vn 0.5218 -0.1399 0.8415
vn 0.4531 -0.2940 0.8416
vn 0.3400 -0.4195 0.8417
vn 0.1938 -0.5042 0.8415
vn 0.0284 -0.5394 0.8416
vn -0.1396 -0.5220 0.8414
vn -0.2941 -0.4532 0.8415
vn -0.4195 -0.3402 0.8416
vn -0.5041 -0.1937 0.8416
vn -0.5396 -0.0287 0.8414
vn -0.5217 0.1399 0.8416
vn -0.4530 0.2939 0.8417
vn -0.5667 0.4593 0.6840
vn -0.6810 0.2621 0.6838
vn -0.7280 0.0382 0.6845
vn -0.7046 -0.1885 0.6841
vn -0.6120 -0.3972 0.6839
vn -0.4591 -0.5666 0.6842
vn -0.2615 -0.6805 0.6845
vn -0.0385 -0.7282 0.6843
vn 0.1886 -0.7045 0.6842
vn 0.3972 -0.6122 0.6837
vn 0.5670 -0.4593 0.6837
vn 0.6809 -0.2621 0.6838
vn 0.7288 -0.0387 0.6836
vn 0.7048 0.1892 0.6837
vn 0.6121 0.3970 0.6839
vn 0.4597 0.5668 0.6837
vn 0.2617 0.6810 0.6840
vn 0.0384 0.7282 0.6843
vn -0.1886 0.7043 0.6844
vn -0.3968 0.6116 0.6844
vn -0.3079 0.3805 0.8720
vn -0.1754 0.4567 0.8721
vn -0.0260 0.4886 0.8721
vn 0.1264 0.4729 0.8720
vn 0.2668 0.4110 0.8717
vn 0.3810 0.3084 0.8716
vn 0.4574 0.1760 0.8717
vn 0.4892 0.0261 0.8718
vn 0.4732 -0.1272 0.8717
vn 0.4110 -0.2663 0.8719
vn 0.3085 -0.3807 0.8717
vn 0.1756 -0.4569 0.8720
vn 0.0256 -0.4886 0.8721
vn -0.1262 -0.4724 0.8723
vn -0.2660 -0.4103 0.8723
vn -0.3801 -0.3084 0.8720
vn -0.4574 -0.1753 0.8718
vn -0.4883 -0.0261 0.8723
vn -0.4728 0.1265 0.8720
vn -0.4109 0.2668 0.8717
vn 0.0242 -0.0195 0.9995
vn 0.0294 -0.0113 0.9995
vn 0.0318 -0.0016 0.9995
vn 0.0314 0.0084 0.9995
vn 0.0279 0.0182 0.9994
vn 0.0214 0.0264 0.9994
vn 0.0124 0.0323 0.9994
vn 0.0018 0.0350 0.9994
vn -0.0092 0.0341 0.9994
vn -0.0248 0.0338 0.9991
vn -0.0296 0.0186 0.9994
vn -0.0336 0.0084 0.9994
vn -0.0340 -0.0024 0.9994
vn -0.0310 -0.0124 0.9994
vn -0.0250 -0.0209 0.9995
vn -0.0169 -0.0270 0.9995
vn -0.0077 -0.0305 0.9995
vn 0.0022 -0.0311 0.9995
vn 0.0073 -0.0214 0.9997
vn 0.0169 -0.0259 0.9995
vn 0.4053 -0.5543 0.7270
vn 0.1408 -0.5170 0.8443
vn -0.0326 -0.6122 0.7900
vn -0.2203 -0.5714 0.7906
vn -0.3835 -0.4757 0.7916
vn -0.5113 -0.3318 0.7928
vn -0.5874 -0.1588 0.7936
vn -0.6060 0.0334 0.7948
vn -0.5656 0.2183 0.7953
vn -0.4701 0.3814 0.7959
vn -0.6663 0.4723 0.5770
vn -0.7812 0.2488 0.5726
vn -0.8240 -0.0074 0.5666
vn -0.7856 -0.2673 0.5581
vn -0.6697 -0.4990 0.5500
vn -0.4887 -0.6845 0.5410
vn -0.2538 -0.8066 0.5339
vn 0.0053 -0.8490 0.5284
vn 0.2773 -0.7846 0.5546
vn 0.0236 -0.4519 0.8918
vn -0.1152 -0.4335 0.8938
vn -0.2402 -0.3701 0.8974
vn -0.3370 -0.2729 0.9011
vn -0.3952 -0.1555 0.9053
vn -0.4151 -0.0238 0.9095
vn -0.3946 0.1087 0.9124
vn -0.3398 0.2190 0.9147
vn -0.0000 -0.0000 1.0000
vn 0.1166 -0.3606 0.9254
vn 0.2471 -0.3800 0.8914
vn 0.5031 -0.6523 0.5669
vn 0.3503 -0.2833 0.8928
vn 0.6812 -0.5050 0.5300
vn 0.4136 -0.1627 0.8958
vn 0.8008 -0.2679 0.5357
vn 0.4371 -0.0223 0.8991
vn 0.8404 -0.0050 0.5420
vn 0.4150 0.1114 0.9030
vn 0.7964 0.2472 0.5520
vn 0.3537 0.2278 0.9072
vn 0.6752 0.4808 0.5594
vn 0.2586 0.3214 0.9109
vn 0.1441 0.3807 0.9134
vn 0.4891 0.6626 0.5672
vn 0.4736 0.3846 0.7924
vn 0.5699 0.2198 0.7918
vn 0.6118 0.0302 0.7904
vn 0.5926 -0.1565 0.7901
vn 0.5153 -0.3350 0.7888
vn 0.3318 0.5096 0.7938
vn 0.2616 0.7762 0.5736
vn 0.0210 0.4012 0.9157
vn 0.0070 0.8162 0.5777
vn 0.1566 0.5865 0.7947
vn -0.0323 0.6051 0.7955
vn -0.2179 0.5652 0.7957
vn -0.2328 0.8133 0.5332
vn -0.1349 0.4216 0.8967
vn -0.2508 0.3123 0.9163
vn -0.4778 0.6879 0.5464
vn -0.3548 0.4900 0.7963
vt 0.944336 0.998294
vt 0.999512 0.955505
vt 0.999512 0.998294
vt 0.944336 0.955505
vt 0.891113 0.998294
vt 0.999512 0.908691
vt 0.891113 0.955505
vt 0.839355 0.998294
vt 0.944336 0.908691
vt 0.944336 0.887451
vt 0.999512 0.887451
vt 0.999512 0.798950
vt 0.944336 0.798950
vt 0.999512 0.710693
vt 0.891113 0.887451
vt 0.891113 0.908691
vt 0.839355 0.955505
vt 0.789551 0.998294
vt 0.789551 0.955505
vt 0.740234 0.998294
vt 0.839355 0.908691
vt 0.839355 0.887451
vt 0.891113 0.798950
vt 0.944336 0.710693
vt 0.944336 0.700439
vt 0.999512 0.700439
vt 0.999512 0.675049
vt 0.944336 0.675049
vt 0.999512 0.641357
vt 0.891113 0.700439
vt 0.891113 0.710693
vt 0.839355 0.798950
vt 0.789551 0.887451
vt 0.789551 0.908691
vt 0.740234 0.955505
vt 0.692871 0.998294
vt 0.692871 0.955505
vt 0.645020 0.998294
vt 0.740234 0.908691
vt 0.740234 0.887451
vt 0.789551 0.798950
vt 0.839355 0.710693
vt 0.839355 0.700439
vt 0.891113 0.675049
vt 0.944336 0.641357
vt 0.999512 0.617432
vt 0.944336 0.617432
vt 0.999512 0.608398
vt 0.944336 0.608398
vt 0.891113 0.617432
vt 0.891113 0.608398
vt 0.891113 0.641357
vt 0.839355 0.675049
vt 0.789551 0.700439
vt 0.789551 0.710693
vt 0.740234 0.798950
vt 0.692871 0.887451
vt 0.692871 0.908691
vt 0.645020 0.955505
vt 0.596680 0.998294
vt 0.596680 0.955505
vt 0.548828 0.998294
vt 0.645020 0.908691
vt 0.645020 0.887451
vt 0.692871 0.798950
vt 0.740234 0.710693
vt 0.740234 0.700439
vt 0.789551 0.675049
vt 0.839355 0.641357
vt 0.839355 0.617432
vt 0.839355 0.608398
vt 0.789551 0.617432
vt 0.789551 0.608398
vt 0.789551 0.641357
vt 0.740234 0.675049
vt 0.692871 0.700439
vt 0.692871 0.710693
vt 0.645020 0.798950
vt 0.596680 0.887451
vt 0.596680 0.908691
vt 0.548828 0.955505
vt 0.499756 0.998294
vt 0.500000 0.955505
vt 0.452148 0.998294
vt 0.548828 0.908691
vt 0.548828 0.887451
vt 0.596680 0.798950
vt 0.645020 0.710693
vt 0.645020 0.700439
vt 0.692871 0.675049
vt 0.740234 0.641357
vt 0.740234 0.617432
vt 0.740234 0.608398
vt 0.692871 0.617432
vt 0.692871 0.608398
vt 0.692871 0.641357
vt 0.645020 0.675049
vt 0.596680 0.700439
vt 0.596680 0.710693
vt 0.548828 0.798950
vt 0.500000 0.887451
vt 0.500000 0.908691
vt 0.452148 0.955505
vt 0.404541 0.998294
vt 0.404541 0.955505
vt 0.356445 0.998294
vt 0.452148 0.908691
vt 0.452148 0.887451
vt 0.500000 0.798950
vt 0.548828 0.710693
vt 0.548828 0.700439
vt 0.596680 0.675049
vt 0.645020 0.641357
vt 0.645020 0.617432
vt 0.645020 0.608398
vt 0.596680 0.617432
vt 0.596680 0.608398
vt 0.596680 0.641357
vt 0.548828 0.675049
vt 0.500488 0.700439
vt 0.500488 0.710693
vt 0.452148 0.798950
vt 0.404541 0.887451
vt 0.404541 0.908691
vt 0.356445 0.955505
vt 0.308594 0.998294
vt 0.308594 0.955505
vt 0.260254 0.998294
vt 0.356445 0.908691
vt 0.356445 0.887451
vt 0.404541 0.798950
vt 0.452148 0.710693
vt 0.452148 0.700439
vt 0.500488 0.675049
vt 0.548828 0.641357
vt 0.548828 0.617432
vt 0.548828 0.608398
vt 0.500488 0.617432
vt 0.500488 0.608398
vt 0.500488 0.641357
vt 0.452148 0.675049
vt 0.404541 0.700439
vt 0.404541 0.710693
vt 0.356445 0.798950
vt 0.308594 0.887451
vt 0.308594 0.908691
vt 0.260254 0.955505
vt 0.211304 0.998294
vt 0.211304 0.955505
vt 0.161255 0.998294
vt 0.260254 0.908691
vt 0.260254 0.887451
vt 0.308594 0.798950
vt 0.356445 0.710693
vt 0.356445 0.700439
vt 0.404541 0.675049
vt 0.452148 0.641357
vt 0.452148 0.617432
vt 0.452148 0.608398
vt 0.404541 0.617432
vt 0.404541 0.608398
vt 0.404541 0.641357
vt 0.356445 0.675049
vt 0.308594 0.700439
vt 0.308594 0.710693
vt 0.260254 0.798950
vt 0.211304 0.887451
vt 0.211304 0.908691
vt 0.161255 0.955505
vt 0.109802 0.998294
vt 0.109802 0.955505
vt 0.056366 0.998294
vt 0.161255 0.908691
vt 0.161255 0.887451
vt 0.211304 0.798950
vt 0.260254 0.710693
vt 0.260254 0.700439
vt 0.308594 0.675049
vt 0.356445 0.641357
vt 0.356445 0.617432
vt 0.356445 0.608398
vt 0.308594 0.617432
vt 0.308594 0.608398
vt 0.308594 0.641357
vt 0.260254 0.675049
vt 0.211304 0.700439
vt 0.211304 0.710693
vt 0.161255 0.798950
vt 0.109802 0.887451
vt 0.109802 0.908691
vt 0.056366 0.955505
vt 0.000454 0.998294
vt 0.000454 0.955505
vt 0.056366 0.908691
vt 0.000454 0.908691
vt 0.000455 0.887451
vt 0.056366 0.887451
vt 0.109802 0.798950
vt 0.161255 0.710693
vt 0.161255 0.700439
vt 0.211304 0.675049
vt 0.260254 0.641357
vt 0.260254 0.617432
vt 0.260254 0.608398
vt 0.211304 0.617432
vt 0.211304 0.608398
vt 0.211304 0.641357
vt 0.161255 0.675049
vt 0.109802 0.700439
vt 0.109802 0.710693
vt 0.056366 0.798950
vt 0.000455 0.798950
vt 0.056366 0.710693
vt 0.000455 0.710693
vt 0.000454 0.700439
vt 0.056366 0.700439
vt 0.109802 0.675049
vt 0.161255 0.641357
vt 0.161255 0.617432
vt 0.161255 0.608398
vt 0.109802 0.617432
vt 0.109802 0.608398
vt 0.109802 0.641357
vt 0.056366 0.675049
vt 0.000454 0.675049
vt 0.056366 0.641357
vt 0.056366 0.617432
vt 0.056366 0.608398
vt 0.000454 0.617432
vt 0.000454 0.608398
vt 0.000454 0.641357
vt 0.653320 0.544678
vt 0.738770 0.600830
vt 0.619141 0.592285
vt 0.569824 0.485352
vt 0.720215 0.555420
vt 0.812012 0.510742
vt 0.667480 0.528564
vt 0.626953 0.485840
vt 0.637695 0.385742
vt 0.660645 0.435059
vt 0.759766 0.395996
vt 0.648926 0.486816
vt 0.674805 0.516602
vt 0.709473 0.533447
vt 0.729980 0.500732
vt 0.751465 0.500488
vt 0.725586 0.439453
vt 0.711914 0.459961
vt 0.704590 0.475098
vt 0.714844 0.500732
vt 0.699219 0.518311
vt 0.677246 0.471191
vt 0.664551 0.488770
vt 0.670898 0.456543
vt 0.804199 0.199219
vt 0.998535 0.217285
vt 0.983398 0.277344
vt 0.994141 0.155273
vt 0.950195 0.330078
vt 0.970703 0.097656
vt 0.902832 0.370117
vt 0.930664 0.049805
vt 0.845215 0.393555
vt 0.877930 0.017090
vt 0.783203 0.397949
vt 0.817871 0.001953
vt 0.722656 0.382812
vt 0.755859 0.006348
vt 0.669922 0.349609
vt 0.698242 0.029297
vt 0.629883 0.302246
vt 0.650391 0.069336
vt 0.606445 0.244629
vt 0.617188 0.122070
vt 0.602539 0.182617
vt 0.473877 0.052734
vt 0.542480 0.116699
vt 0.470947 0.057129
vt 0.387207 0.018555
vt 0.388672 0.013184
vt 0.295654 0.007324
vt 0.295410 0.001953
vt 0.205322 0.024902
vt 0.203369 0.020020
vt 0.124756 0.069824
vt 0.121338 0.065430
vt 0.061920 0.137207
vt 0.057373 0.134277
vt 0.023041 0.220703
vt 0.017776 0.219238
vt 0.011902 0.312500
vt 0.006451 0.312500
vt 0.029587 0.402832
vt 0.024475 0.404785
vt 0.074341 0.483398
vt 0.070068 0.486816
vt 0.141846 0.546143
vt 0.138794 0.550781
vt 0.225464 0.584961
vt 0.223999 0.590332
vt 0.316895 0.596191
vt 0.317139 0.601562
vt 0.407471 0.578369
vt 0.409424 0.583496
vt 0.488037 0.533691
vt 0.491455 0.537842
vt 0.550781 0.466309
vt 0.555176 0.469238
vt 0.589355 0.382812
vt 0.594727 0.384277
vt 0.600586 0.291016
vt 0.605957 0.291016
vt 0.583008 0.200684
vt 0.588379 0.198730
vt 0.538086 0.120117
vt 0.532715 0.124512
vt 0.576172 0.203125
vt 0.593750 0.291504
vt 0.583008 0.380859
vt 0.544922 0.462402
vt 0.483643 0.528076
vt 0.405029 0.571777
vt 0.316650 0.589111
vt 0.227417 0.578125
vt 0.145752 0.540283
vt 0.079895 0.479004
vt 0.036224 0.400391
vt 0.018967 0.312012
vt 0.029846 0.222656
vt 0.067749 0.141113
vt 0.129028 0.075195
vt 0.207764 0.031738
vt 0.295898 0.014160
vt 0.385254 0.025391
vt 0.466797 0.062988
vt 0.454834 0.081055
vt 0.379395 0.045898
vt 0.296875 0.036133
vt 0.215210 0.051758
vt 0.142456 0.092285
vt 0.085815 0.153320
vt 0.050751 0.228516
vt 0.040680 0.311523
vt 0.056641 0.393066
vt 0.097046 0.465820
vt 0.157959 0.522217
vt 0.233398 0.557373
vt 0.315918 0.567383
vt 0.397461 0.551514
vt 0.470215 0.510986
vt 0.526855 0.450195
vt 0.562012 0.374512
vt 0.571777 0.291992
vt 0.556152 0.210449
vt 0.515625 0.137695
vt 0.510254 0.142090
vt 0.549805 0.212891
vt 0.564941 0.292480
vt 0.555176 0.373047
vt 0.520996 0.446289
vt 0.466064 0.505615
vt 0.395264 0.544922
vt 0.315674 0.560547
vt 0.235229 0.550781
vt 0.161743 0.516602
vt 0.102356 0.461426
vt 0.062988 0.390625
vt 0.047455 0.311035
vt 0.057251 0.230469
vt 0.091431 0.157227
vt 0.146606 0.097656
vt 0.217529 0.058594
vt 0.296875 0.042969
vt 0.377441 0.052734
vt 0.450928 0.086914
vt 0.409180 0.150879
vt 0.357422 0.126465
vt 0.300781 0.119141
vt 0.244629 0.129883
vt 0.194580 0.157227
vt 0.155396 0.198730
vt 0.130981 0.250488
vt 0.123779 0.307129
vt 0.134399 0.363281
vt 0.161865 0.413574
vt 0.203491 0.452637
vt 0.255127 0.477051
vt 0.312012 0.484375
vt 0.368164 0.473633
vt 0.418213 0.446289
vt 0.457275 0.404785
vt 0.481689 0.353027
vt 0.489014 0.296387
vt 0.478271 0.240234
vt 0.450684 0.189941
vt 0.445801 0.193848
vt 0.472412 0.242188
vt 0.482666 0.296387
vt 0.475586 0.351074
vt 0.452148 0.400879
vt 0.414307 0.441406
vt 0.365967 0.467773
vt 0.311768 0.478027
vt 0.256836 0.471191
vt 0.207153 0.447754
vt 0.166870 0.409668
vt 0.140381 0.361328
vt 0.130005 0.307129
vt 0.137085 0.252441
vt 0.160645 0.202637
vt 0.198364 0.162109
vt 0.246826 0.135742
vt 0.301025 0.125488
vt 0.355713 0.132324
vt 0.405518 0.155762
vt 0.377930 0.196777
vt 0.341797 0.179688
vt 0.302490 0.174805
vt 0.263428 0.182129
vt 0.228638 0.201172
vt 0.201294 0.229980
vt 0.184326 0.266113
vt 0.179321 0.305664
vt 0.186768 0.344727
vt 0.205811 0.379395
vt 0.234863 0.406738
vt 0.270752 0.423828
vt 0.310303 0.428711
vt 0.349365 0.421387
vt 0.384033 0.402344
vt 0.411377 0.373047
vt 0.428223 0.337402
vt 0.433350 0.297852
vt 0.426025 0.258789
vt 0.406738 0.224121
vt 0.391602 0.235840
vt 0.407959 0.265137
vt 0.414307 0.298340
vt 0.409912 0.332031
vt 0.395508 0.362305
vt 0.372559 0.387207
vt 0.342773 0.403320
vt 0.309570 0.409668
vt 0.276123 0.405273
vt 0.245605 0.391113
vt 0.220947 0.367676
vt 0.204712 0.338379
vt 0.198486 0.305176
vt 0.202759 0.271484
vt 0.217163 0.240723
vt 0.240356 0.216309
vt 0.269775 0.200195
vt 0.302979 0.193848
vt 0.336426 0.198242
vt 0.366943 0.212402
vt 0.354492 0.231445
vt 0.330322 0.220215
vt 0.303955 0.216797
vt 0.277832 0.221680
vt 0.254395 0.234375
vt 0.236084 0.253418
vt 0.224609 0.277832
vt 0.221069 0.304199
vt 0.225952 0.330566
vt 0.238770 0.354004
vt 0.258057 0.372070
vt 0.282227 0.383789
vt 0.308838 0.387207
vt 0.334961 0.382324
vt 0.358398 0.369141
vt 0.376709 0.349609
vt 0.388184 0.325684
vt 0.391602 0.299316
vt 0.386475 0.272949
vt 0.373779 0.249512
vt 0.363281 0.257812
vt 0.374023 0.277832
vt 0.378174 0.299805
vt 0.375244 0.321777
vt 0.365723 0.342285
vt 0.350342 0.358887
vt 0.330566 0.369629
vt 0.308350 0.373535
vt 0.286133 0.371094
vt 0.265625 0.361328
vt 0.249268 0.345703
vt 0.238525 0.325684
vt 0.234375 0.303711
vt 0.237427 0.281250
vt 0.247070 0.261230
vt 0.262451 0.244629
vt 0.282227 0.233887
vt 0.304443 0.229980
vt 0.326660 0.232910
vt 0.346924 0.242676
vt 0.328125 0.269531
vt 0.316406 0.264160
vt 0.303711 0.262695
vt 0.291260 0.265137
vt 0.280273 0.271484
vt 0.271484 0.280762
vt 0.266357 0.292480
vt 0.264893 0.305176
vt 0.267334 0.317871
vt 0.273438 0.328613
vt 0.292725 0.312012
vt 0.290527 0.307617
vt 0.290039 0.302734
vt 0.291016 0.297852
vt 0.293213 0.293457
vt 0.296875 0.290527
vt 0.301270 0.288086
vt 0.306152 0.287598
vt 0.311035 0.288574
vt 0.306396 0.298340
vt 0.304932 0.298340
vt 0.303711 0.298828
vt 0.302734 0.299805
vt 0.302002 0.300781
vt 0.301514 0.302246
vt 0.301758 0.303711
vt 0.302246 0.304688
vt 0.305664 0.302734
vt 0.307617 0.298828
vt 0.308838 0.299316
vt 0.315186 0.291016
vt 0.309570 0.300293
vt 0.318604 0.294434
vt 0.310059 0.301758
vt 0.320801 0.298828
vt 0.310303 0.303223
vt 0.321289 0.303711
vt 0.310059 0.304199
vt 0.320312 0.308594
vt 0.309326 0.305664
vt 0.317871 0.312988
vt 0.308105 0.306152
vt 0.306885 0.306641
vt 0.314453 0.316406
vt 0.339355 0.326172
vt 0.344727 0.314453
vt 0.346191 0.301758
vt 0.343750 0.289551
vt 0.337402 0.278320
vt 0.330811 0.335449
vt 0.310059 0.318359
vt 0.305664 0.307129
vt 0.305176 0.318848
vt 0.319580 0.341797
vt 0.307129 0.344238
vt 0.294434 0.342773
vt 0.300293 0.317871
vt 0.304199 0.306641
vt 0.303223 0.306152
vt 0.295898 0.315430
vt 0.282959 0.337402
s 1
usemtl Tire
f 1/1/1 2/2/2 3/3/3
f 2/2/2 1/1/1 4/4/4
f 4/4/4 1/1/1 5/5/5
f 2/2/2 4/4/4 6/6/6
f 4/4/4 5/5/5 7/7/7
f 7/7/7 5/5/5 8/8/8
f 4/4/4 7/7/7 9/9/9
f 4/4/4 9/9/9 6/6/6
f 9/9/9 10/10/10 6/6/6
f 6/6/6 10/10/10 11/11/11
f 11/11/11 10/10/10 12/12/12
f 12/12/12 10/10/10 13/13/13
f 12/12/12 13/13/13 14/14/14
f 10/10/10 15/15/15 13/13/13
f 15/15/15 10/10/10 9/9/9
f 15/15/15 9/9/9 16/16/16
f 16/16/16 9/9/9 7/7/7
f 16/16/16 7/7/7 17/17/17
f 17/17/17 7/7/7 8/8/8
f 17/17/17 8/8/8 18/18/18
f 17/17/17 18/18/18 19/19/19
f 19/19/19 18/18/18 20/20/20
f 17/17/17 19/19/19 21/21/21
f 17/17/17 21/21/21 16/16/16
f 16/16/16 21/21/21 22/22/22
f 16/16/16 22/22/22 15/15/15
f 15/15/15 22/22/22 23/23/23
f 15/15/15 23/23/23 13/13/13
f 13/13/13 23/23/23 24/24/24
f 13/13/13 24/24/24 14/14/14
f 24/24/24 25/25/25 14/14/14
f 14/14/14 25/25/25 26/26/26
f 26/26/26 25/25/25 27/27/27
f 27/27/27 25/25/25 28/28/28
f 27/27/27 28/28/28 29/29/29
f 25/25/25 30/30/30 28/28/28
f 30/30/30 25/25/25 24/24/24
f 30/30/30 24/24/24 31/31/31
f 24/24/24 23/23/23 31/31/31
f 23/23/23 32/32/32 31/31/31
f 32/32/32 23/23/23 22/22/22
f 32/32/32 22/22/22 33/33/33
f 22/22/22 21/21/21 33/33/33
f 33/33/33 21/21/21 34/34/34
f 34/34/34 21/21/21 19/19/19
f 34/34/34 19/19/19 35/35/35
f 35/35/35 19/19/19 20/20/20
f 35/35/35 20/20/20 36/36/36
f 35/35/35 36/36/36 37/37/37
f 37/37/37 36/36/36 38/38/38
f 35/35/35 37/37/37 39/39/39
f 35/35/35 39/39/39 34/34/34
f 34/34/34 39/39/39 40/40/40
f 34/34/34 40/40/40 33/33/33
f 33/33/33 40/40/40 41/41/41
f 33/33/33 41/41/41 32/32/32
f 32/32/32 41/41/41 42/42/42
f 32/32/32 42/42/42 31/31/31
f 31/31/31 42/42/42 43/43/43
f 31/31/31 43/43/43 30/30/30
f 30/30/30 43/43/43 44/44/44
f 30/30/30 44/44/44 28/28/28
f 44/44/44 45/45/45 28/28/28
f 45/45/45 29/29/29 28/28/28
f 29/29/29 45/45/45 46/46/46
f 46/46/46 45/45/45 47/47/47
f 46/46/46 47/47/47 48/48/48
f 48/48/48 47/47/47 49/49/49
f 47/47/47 50/50/50 49/49/49
f 49/49/49 50/50/50 51/51/51
f 47/47/47 52/52/52 50/50/50
f 52/52/52 47/47/47 45/45/45
f 52/52/52 45/45/45 44/44/44
f 52/52/52 44/44/44 53/53/53
f 44/44/44 43/43/43 53/53/53
f 43/43/43 54/54/54 53/53/53
f 54/54/54 43/43/43 42/42/42
f 54/54/54 42/42/42 55/55/55
f 42/42/42 41/41/41 55/55/55
f 41/41/41 56/56/56 55/55/55
f 56/56/56 41/41/41 40/40/40
f 56/56/56 40/40/40 57/57/57
f 40/40/40 39/39/39 57/57/57
f 57/57/57 39/39/39 58/58/58
f 58/58/58 39/39/39 37/37/37
f 58/58/58 37/37/37 59/59/59
f 59/59/59 37/37/37 38/38/38
f 59/59/59 38/38/38 60/60/60
f 59/59/59 60/60/60 61/61/61
f 61/61/61 60/60/60 62/62/62
f 59/59/59 61/61/61 63/63/63
f 59/59/59 63/63/63 58/58/58
f 58/58/58 63/63/63 64/64/64
f 58/58/58 64/64/64 57/57/57
f 57/57/57 64/64/64 65/65/65
f 57/57/57 65/65/65 56/56/56
f 56/56/56 65/65/65 66/66/66
f 56/56/56 66/66/66 55/55/55
f 55/55/55 66/66/66 67/67/67
f 55/55/55 67/67/67 54/54/54
f 54/54/54 67/67/67 68/68/68
f 54/54/54 68/68/68 53/53/53
f 68/68/68 69/69/69 53/53/53
f 69/69/69 52/52/52 53/53/53
f 52/52/52 69/69/69 50/50/50
f 50/50/50 69/69/69 70/70/70
f 50/50/50 70/70/70 51/51/51
f 51/51/51 70/70/70 71/71/71
f 70/70/70 72/72/72 71/71/71
f 71/71/71 72/72/72 73/73/73
f 70/70/70 74/74/74 72/72/72
f 74/74/74 70/70/70 69/69/69
f 74/74/74 69/69/69 68/68/68
f 74/74/74 68/68/68 75/75/75
f 68/68/68 67/67/67 75/75/75
f 67/67/67 76/76/76 75/75/75
f 76/76/76 67/67/67 66/66/66
f 76/76/76 66/66/66 77/77/77
f 66/66/66 65/65/65 77/77/77
f 65/65/65 78/78/78 77/77/77
f 78/78/78 65/65/65 64/64/64
f 78/78/78 64/64/64 79/79/79
f 64/64/64 63/63/63 79/79/79
f 79/79/79 63/63/63 80/80/80
f 80/80/80 63/63/63 61/61/61
f 80/80/80 61/61/61 81/81/81
f 81/81/81 61/61/61 62/62/62
f 81/81/81 62/62/62 82/82/82
f 81/81/81 82/82/82 83/83/83
f 83/83/83 82/82/82 84/84/84
f 81/81/81 83/83/83 85/85/85
f 81/81/81 85/85/85 80/80/80
f 80/80/80 85/85/85 86/86/86
f 80/80/80 86/86/86 79/79/79
f 79/79/79 86/86/86 87/87/87
f 79/79/79 87/87/87 78/78/78
f 78/78/78 87/87/87 88/88/88
f 78/78/78 88/88/88 77/77/77
f 77/77/77 88/88/88 89/89/89
f 77/77/77 89/89/89 76/76/76
f 76/76/76 89/89/89 90/90/90
f 76/76/76 90/90/90 75/75/75
f 90/90/90 91/91/91 75/75/75
f 91/91/91 74/74/74 75/75/75
f 74/74/74 91/91/91 72/72/72
f 72/72/72 91/91/91 92/92/92
f 72/72/72 92/92/92 73/73/73
f 73/73/73 92/92/92 93/93/93
f 92/92/92 94/94/94 93/93/93
f 93/93/93 94/94/94 95/95/95
f 92/92/92 96/96/96 94/94/94
f 96/96/96 92/92/92 91/91/91
f 96/96/96 91/91/91 90/90/90
f 96/96/96 90/90/90 97/97/97
f 90/90/90 89/89/89 97/97/97
f 89/89/89 98/98/98 97/97/97
f 98/98/98 89/89/89 88/88/88
f 98/98/98 88/88/88 99/99/99
f 88/88/88 87/87/87 99/99/99
f 87/87/87 100/100/100 99/99/99
f 100/100/100 87/87/87 86/86/86
f 100/100/100 86/86/86 101/101/101
f 86/86/86 85/85/85 101/101/101
f 101/101/101 85/85/85 102/102/102
f 102/102/102 85/85/85 83/83/83
f 102/102/102 83/83/83 103/103/103
f 103/103/103 83/83/83 84/84/84
f 103/103/103 84/84/84 104/104/104
f 103/103/103 104/104/104 105/105/105
f 105/105/105 104/104/104 106/106/106
f 103/103/103 105/105/105 107/107/107
f 103/103/103 107/107/107 102/102/102
f 102/102/102 107/107/107 108/108/108
f 102/102/102 108/108/108 101/101/101
f 101/101/101 108/108/108 109/109/109
f 101/101/101 109/109/109 100/100/100
f 100/100/100 109/109/109 110/110/110
f 100/100/100 110/110/110 99/99/99
f 99/99/99 110/110/110 111/111/111
f 99/99/99 111/111/111 98/98/98
f 98/98/98 111/111/111 112/112/112
f 98/98/98 112/112/112 97/97/97
f 112/112/112 113/113/113 97/97/97
f 113/113/113 96/96/96 97/97/97
f 96/96/96 113/113/113 94/94/94
f 94/94/94 113/113/113 114/114/114
f 94/94/94 114/114/114 95/95/95
f 95/95/95 114/114/114 115/115/115
f 114/114/114 116/116/116 115/115/115
f 115/115/115 116/116/116 117/117/117
f 114/114/114 118/118/118 116/116/116
f 118/118/118 114/114/114 113/113/113
f 118/118/118 113/113/113 112/112/112
f 118/118/118 112/112/112 119/119/119
f 112/112/112 111/111/111 119/119/119
f 111/111/111 120/120/120 119/119/119
f 120/120/120 111/111/111 110/110/110
f 120/120/120 110/110/110 121/121/121
f 110/110/110 109/109/109 121/121/121
f 109/109/109 122/122/122 121/121/121
f 122/122/122 109/109/109 108/108/108
f 122/122/122 108/108/108 123/123/123
f 108/108/108 107/107/107 123/123/123
f 123/123/123 107/107/107 124/124/124
f 124/124/124 107/107/107 105/105/105
f 124/124/124 105/105/105 125/125/125
f 125/125/125 105/105/105 106/106/106
f 125/125/125 106/106/106 126/126/126
f 125/125/125 126/126/126 127/127/127
f 127/127/127 126/126/126 128/128/128
f 125/125/125 127/127/127 129/129/129
f 125/125/125 129/129/129 124/124/124
f 124/124/124 129/129/129 130/130/130
f 124/124/124 130/130/130 123/123/123
f 123/123/123 130/130/130 131/131/131
f 123/123/123 131/131/131 122/122/122
f 122/122/122 131/131/131 132/132/132
f 122/122/122 132/132/132 121/121/121
f 121/121/121 132/132/132 133/133/133
f 121/121/121 133/133/133 120/120/120
f 120/120/120 133/133/133 134/134/134
f 120/120/120 134/134/134 119/119/119
f 134/134/134 135/135/135 119/119/119
f 135/135/135 118/118/118 119/119/119
f 118/118/118 135/135/135 116/116/116
f 116/116/116 135/135/135 136/136/136
f 116/116/116 136/136/136 117/117/117
f 117/117/117 136/136/136 137/137/137
f 136/136/136 138/138/138 137/137/137
f 137/137/137 138/138/138 139/139/139
f 136/136/136 140/140/140 138/138/138
f 140/140/140 136/136/136 135/135/135
f 140/140/140 135/135/135 134/134/134
f 140/140/140 134/134/134 141/141/141
f 134/134/134 133/133/133 141/141/141
f 133/133/133 142/142/142 141/141/141
f 142/142/142 133/133/133 132/132/132
f 142/142/142 132/132/132 143/143/143
f 132/132/132 131/131/131 143/143/143
f 131/131/131 144/144/144 143/143/143
f 144/144/144 131/131/131 130/130/130
f 144/144/144 130/130/130 145/145/145
f 130/130/130 129/129/129 145/145/145
f 145/145/145 129/129/129 146/146/146
f 146/146/146 129/129/129 127/127/127
f 146/146/146 127/127/127 147/147/147
f 147/147/147 127/127/127 128/128/128
f 147/147/147 128/128/128 148/148/148
f 147/147/147 148/148/148 149/149/149
f 149/149/149 148/148/148 150/150/150
f 147/147/147 149/149/149 151/151/151
f 147/147/147 151/151/151 146/146/146
f 146/146/146 151/151/151 152/152/152
f 146/146/146 152/152/152 145/145/145
f 145/145/145 152/152/152 153/153/153
f 145/145/145 153/153/153 144/144/144
f 144/144/144 153/153/153 154/154/154
f 144/144/144 154/154/154 143/143/143
f 143/143/143 154/154/154 155/155/155
f 143/143/143 155/155/155 142/142/142
f 142/142/142 155/155/155 156/156/156
f 142/142/142 156/156/156 141/141/141
f 156/156/156 157/157/157 141/141/141
f 157/157/157 140/140/140 141/141/141
f 140/140/140 157/157/157 138/138/138
f 138/138/138 157/157/157 158/158/158
f 138/138/138 158/158/158 139/139/139
f 139/139/139 158/158/158 159/159/159
f 158/158/158 160/160/160 159/159/159
f 159/159/159 160/160/160 161/161/161
f 158/158/158 162/162/162 160/160/160
f 162/162/162 158/158/158 157/157/157
f 162/162/162 157/157/157 156/156/156
f 162/162/162 156/156/156 163/163/163
f 156/156/156 155/155/155 163/163/163
f 155/155/155 164/164/164 163/163/163
f 164/164/164 155/155/155 154/154/154
f 164/164/164 154/154/154 165/165/165
f 154/154/154 153/153/153 165/165/165
f 153/153/153 166/166/166 165/165/165
f 166/166/166 153/153/153 152/152/152
f 166/166/166 152/152/152 167/167/167
f 152/152/152 151/151/151 167/167/167
f 167/167/167 151/151/151 168/168/168
f 168/168/168 151/151/151 149/149/149
f 168/168/168 149/149/149 169/169/169
f 169/169/169 149/149/149 150/150/150
f 169/169/169 150/150/150 170/170/170
f 169/169/169 170/170/170 171/171/171
f 171/171/171 170/170/170 172/172/172
f 169/169/169 171/171/171 173/173/173
f 169/169/169 173/173/173 168/168/168
f 168/168/168 173/173/173 174/174/174
f 168/168/168 174/174/174 167/167/167
f 167/167/167 174/174/174 175/175/175
f 167/167/167 175/175/175 166/166/166
f 166/166/166 175/175/175 176/176/176
f 166/166/166 176/176/176 165/165/165
f 165/165/165 176/176/176 177/177/177
f 165/165/165 177/177/177 164/164/164
f 164/164/164 177/177/177 178/178/178
f 164/164/164 178/178/178 163/163/163
f 178/178/178 179/179/179 163/163/163
f 179/179/179 162/162/162 163/163/163
f 162/162/162 179/179/179 160/160/160
f 160/160/160 179/179/179 180/180/180
f 160/160/160 180/180/180 161/161/161
f 161/161/161 180/180/180 181/181/181
f 180/180/180 182/182/182 181/181/181
f 181/181/181 182/182/182 183/183/183
f 180/180/180 184/184/184 182/182/182
f 184/184/184 180/180/180 179/179/179
f 184/184/184 179/179/179 178/178/178
f 184/184/184 178/178/178 185/185/185
f 178/178/178 177/177/177 185/185/185
f 177/177/177 186/186/186 185/185/185
f 186/186/186 177/177/177 176/176/176
f 186/186/186 176/176/176 187/187/187
f 176/176/176 175/175/175 187/187/187
f 175/175/175 188/188/188 187/187/187
f 188/188/188 175/175/175 174/174/174
f 188/188/188 174/174/174 189/189/189
f 174/174/174 173/173/173 189/189/189
f 189/189/189 173/173/173 190/190/190
f 190/190/190 173/173/173 171/171/171
f 190/190/190 171/171/171 191/191/191
f 191/191/191 171/171/171 172/172/172
f 191/191/191 172/172/172 192/192/192
f 191/191/191 192/192/192 193/193/193
f 191/191/191 193/193/193 194/194/194
f 191/191/191 194/194/194 190/190/190
f 194/194/194 193/193/193 195/195/195
f 194/194/194 195/195/195 196/196/196
f 194/194/194 196/196/196 197/197/197
f 194/194/194 197/197/197 190/190/190
f 190/190/190 197/197/197 189/189/189
f 189/189/189 197/197/197 198/198/198
f 189/189/189 198/198/198 188/188/188
f 188/188/188 198/198/198 199/199/199
f 188/188/188 199/199/199 187/187/187
f 187/187/187 199/199/199 200/200/200
f 187/187/187 200/200/200 186/186/186
f 186/186/186 200/200/200 201/201/201
f 186/186/186 201/201/201 185/185/185
f 201/201/201 202/202/202 185/185/185
f 202/202/202 184/184/184 185/185/185
f 184/184/184 202/202/202 182/182/182
f 182/182/182 202/202/202 203/203/203
f 182/182/182 203/203/203 183/183/183
f 183/183/183 203/203/203 204/204/204
f 203/203/203 205/205/205 204/204/204
f 204/204/204 205/205/205 206/206/206
f 203/203/203 207/207/207 205/205/205
f 207/207/207 203/203/203 202/202/202
f 207/207/207 202/202/202 201/201/201
f 207/207/207 201/201/201 208/208/208
f 201/201/201 200/200/200 208/208/208
f 200/200/200 209/209/209 208/208/208
f 209/209/209 200/200/200 199/199/199
f 209/209/209 199/199/199 210/210/210
f 199/199/199 198/198/198 210/210/210
f 198/198/198 211/211/211 210/210/210
f 211/211/211 198/198/198 197/197/197
f 211/211/211 197/197/197 196/196/196
f 211/211/211 196/196/196 212/212/212
f 211/211/211 212/212/212 213/213/213
f 211/211/211 213/213/213 210/210/210
f 213/213/213 212/212/212 214/214/214
f 213/213/213 214/214/214 215/215/215
f 213/213/213 215/215/215 216/216/216
f 213/213/213 216/216/216 210/210/210
f 210/210/210 216/216/216 209/209/209
f 209/209/209 216/216/216 217/217/217
f 209/209/209 217/217/217 208/208/208
f 217/217/217 218/218/218 208/208/208
f 218/218/218 207/207/207 208/208/208
f 207/207/207 218/218/218 205/205/205
f 205/205/205 218/218/218 219/219/219
f 205/205/205 219/219/219 206/206/206
f 206/206/206 219/219/219 220/220/220
f 219/219/219 221/221/221 220/220/220
f 220/220/220 221/221/221 222/222/222
f 219/219/219 223/223/223 221/221/221
f 223/223/223 219/219/219 218/218/218
f 223/223/223 218/218/218 217/217/217
f 223/223/223 217/217/217 224/224/224
f 217/217/217 216/216/216 224/224/224
f 216/216/216 215/215/215 224/224/224
f 224/224/224 215/215/215 225/225/225
f 224/224/224 225/225/225 226/226/226
f 224/224/224 226/226/226 223/223/223
f 223/223/223 226/226/226 221/221/221
f 221/221/221 226/226/226 227/227/227
f 221/221/221 227/227/227 222/222/222
f 222/222/222 227/227/227 228/228/228
f 227/227/227 229/229/229 228/228/228
f 228/228/228 229/229/229 230/230/230
f 227/227/227 231/231/231 229/229/229
f 231/231/231 227/227/227 226/226/226
f 231/231/231 226/226/226 225/225/225
f 232/232/232 233/233/233 234/234/234
f 232/232/232 234/234/234 235/235/235
f 233/233/233 232/232/232 236/236/236
f 233/233/233 236/236/236 237/237/237
f 232/232/232 238/238/238 236/236/236
f 238/238/238 232/232/232 239/239/239
f 232/232/232 235/235/235 239/239/239
f 235/235/235 240/240/240 239/239/239
f 239/239/239 240/240/240 241/241/241
f 240/240/240 242/242/242 241/241/241
f 239/239/239 241/241/241 243/243/243
f 239/239/239 243/243/243 238/238/238
f 238/238/238 243/243/243 244/244/244
f 238/238/238 244/244/244 245/245/245
f 238/238/238 245/245/245 236/236/236
f 236/236/236 245/245/245 246/246/246
f 236/236/236 246/246/246 247/247/247
f 236/236/236 247/247/247 237/237/237
f 237/237/237 247/247/247 248/248/248
f 237/237/237 248/248/248 242/242/242
f 242/242/242 248/248/248 241/241/241
f 248/248/248 249/249/249 241/241/241
f 249/249/249 248/248/248 247/247/247
f 249/249/249 247/247/247 246/246/246
f 249/249/249 246/246/246 250/250/250
f 250/250/250 246/246/246 251/251/251
f 246/246/246 245/245/245 251/251/251
f 251/251/251 245/245/245 252/252/252
f 245/245/245 244/244/244 252/252/252
f 251/251/251 252/252/252 250/250/250
f 250/250/250 252/252/252 253/253/253
f 252/252/252 244/244/244 253/253/253
f 253/253/253 244/244/244 254/254/254
f 244/244/244 243/243/243 254/254/254
f 253/253/253 254/254/254 243/243/243
f 253/253/253 243/243/243 255/255/255
f 243/243/243 241/241/241 255/255/255
f 241/241/241 249/249/249 255/255/255
f 249/249/249 250/250/250 255/255/255
f 255/255/255 250/250/250 253/253/253
f 256/232/256 257/233/257 258/234/258
f 256/232/256 258/234/258 259/235/259
f 257/233/257 256/232/256 260/236/260
f 257/233/257 260/236/260 261/237/261
f 256/232/256 262/238/262 260/236/260
f 262/238/262 256/232/256 263/239/263
f 256/232/256 259/235/259 263/239/263
f 259/235/259 264/240/264 263/239/263
f 263/239/263 264/240/264 265/241/265
f 264/240/264 266/242/266 265/241/265
f 263/239/263 265/241/265 267/243/267
f 263/239/263 267/243/267 262/238/262
f 262/238/262 267/243/267 268/244/268
f 262/238/262 268/244/268 269/245/269
f 262/238/262 269/245/269 260/236/260
f 260/236/260 269/245/269 270/246/270
f 260/236/260 270/246/270 271/247/271
f 260/236/260 271/247/271 261/237/261
f 261/237/261 271/247/271 272/248/272
f 261/237/261 272/248/272 266/242/266
f 266/242/266 272/248/272 265/241/265
f 272/248/272 273/249/273 265/241/265
f 273/249/273 272/248/272 271/247/271
f 273/249/273 271/247/271 270/246/270
f 273/249/273 270/246/270 274/250/274
f 274/250/274 270/246/270 275/251/275
f 270/246/270 269/245/269 275/251/275
f 275/251/275 269/245/269 276/252/276
f 269/245/269 268/244/268 276/252/276
f 275/251/275 276/252/276 274/250/274
f 274/250/274 276/252/276 277/253/277
f 276/252/276 268/244/268 277/253/277
f 277/253/277 268/244/268 278/254/278
f 268/244/268 267/243/267 278/254/278
f 277/253/277 278/254/278 267/243/267
f 277/253/277 267/243/267 279/255/279
f 267/243/267 265/241/265 279/255/279
f 265/241/265 273/249/273 279/255/279
f 273/249/273 274/250/274 279/255/279
f 279/255/279 274/250/274 277/253/277
f 280/232/280 281/233/281 282/234/282
f 280/232/280 282/234/282 283/235/283
f 281/233/281 280/232/280 284/236/284
f 281/233/281 284/236/284 285/237/285
f 280/232/280 286/238/286 284/236/284
f 286/238/286 280/232/280 287/239/287
f 280/232/280 283/235/283 287/239/287
f 283/235/283 288/240/288 287/239/287
f 287/239/287 288/240/288 289/241/289
f 288/240/288 290/242/290 289/241/289
f 287/239/287 289/241/289 291/243/291
f 287/239/287 291/243/291 286/238/286
f 286/238/286 291/243/291 292/244/292
f 286/238/286 292/244/292 293/245/293
f 286/238/286 293/245/293 284/236/284
f 284/236/284 293/245/293 294/246/294
f 284/236/284 294/246/294 295/247/295
f 284/236/284 295/247/295 285/237/285
f 285/237/285 295/247/295 296/248/296
f 285/237/285 296/248/296 290/242/290
f 290/242/290 296/248/296 289/241/289
f 296/248/296 297/249/297 289/241/289
f 297/249/297 296/248/296 295/247/295
f 297/249/297 295/247/295 294/246/294
f 297/249/297 294/246/294 298/250/298
f 298/250/298 294/246/294 299/251/299
f 294/246/294 293/245/293 299/251/299
f 299/251/299 293/245/293 300/252/300
f 293/245/293 292/244/292 300/252/300
f 299/251/299 300/252/300 298/250/298
f 298/250/298 300/252/300 301/253/301
f 300/252/300 292/244/292 301/253/301
f 301/253/301 292/244/292 302/254/302
f 292/244/292 291/243/291 302/254/302
f 301/253/301 302/254/302 291/243/291
f 301/253/301 291/243/291 303/255/303
f 291/243/291 289/241/289 303/255/303
f 289/241/289 297/249/297 303/255/303
f 297/249/297 298/250/298 303/255/303
f 303/255/303 298/250/298 301/253/301
f 304/232/304 305/233/305 306/234/306
f 304/232/304 306/234/306 307/235/307
f 305/233/305 304/232/304 308/236/308
f 305/233/305 308/236/308 309/237/309
f 304/232/304 310/238/286 308/236/308
f 310/238/286 304/232/304 311/239/310
f 304/232/304 307/235/307 311/239/310
f 307/235/307 312/240/311 311/239/310
f 311/239/310 312/240/311 313/241/312
f 312/240/311 314/242/313 313/241/312
f 311/239/310 313/241/312 315/243/291
f 311/239/310 315/243/291 310/238/286
f 310/238/286 315/243/291 316/244/314
f 310/238/286 316/244/314 317/245/315
f 310/238/286 317/245/315 308/236/308
f 308/236/308 317/245/315 318/246/294
f 308/236/308 318/246/294 319/247/295
f 308/236/308 319/247/295 309/237/309
f 309/237/309 319/247/295 320/248/316
f 309/237/309 320/248/316 314/242/313
f 314/242/313 320/248/316 313/241/312
f 320/248/316 321/249/297 313/241/312
f 321/249/297 320/248/316 319/247/295
f 321/249/297 319/247/295 318/246/294
f 321/249/297 318/246/294 322/250/317
f 322/250/317 318/246/294 323/251/318
f 318/246/294 317/245/315 323/251/318
f 323/251/318 317/245/315 324/252/319
f 317/245/315 316/244/314 324/252/319
f 323/251/318 324/252/319 322/250/317
f 322/250/317 324/252/319 325/253/301
f 324/252/319 316/244/314 325/253/301
f 325/253/301 316/244/314 326/254/302
f 316/244/314 315/243/291 326/254/302
f 325/253/301 326/254/302 315/243/291
f 325/253/301 315/243/291 327/255/303
f 315/243/291 313/241/312 327/255/303
f 313/241/312 321/249/297 327/255/303
f 321/249/297 322/250/317 327/255/303
f 327/255/303 322/250/317 325/253/301
f 328/232/320 329/233/321 330/234/322
f 328/232/320 330/234/322 331/235/323
f 329/233/321 328/232/320 332/236/324
f 329/233/321 332/236/324 333/237/325
f 328/232/320 334/238/326 332/236/324
f 334/238/326 328/232/320 335/239/327
f 328/232/320 331/235/323 335/239/327
f 331/235/323 336/240/328 335/239/327
f 335/239/327 336/240/328 337/241/329
f 336/240/328 338/242/330 337/241/329
f 335/239/327 337/241/329 339/243/331
f 335/239/327 339/243/331 334/238/326
f 334/238/326 339/243/331 340/244/332
f 334/238/326 340/244/332 341/245/333
f 334/238/326 341/245/333 332/236/324
f 332/236/324 341/245/333 342/246/334
f 332/236/324 342/246/334 343/247/335
f 332/236/324 343/247/335 333/237/325
f 333/237/325 343/247/335 344/248/336
f 333/237/325 344/248/336 338/242/330
f 338/242/330 344/248/336 337/241/329
f 344/248/336 345/249/337 337/241/329
f 345/249/337 344/248/336 343/247/335
f 345/249/337 343/247/335 342/246/334
f 345/249/337 342/246/334 346/250/338
f 346/250/338 342/246/334 347/251/339
f 342/246/334 341/245/333 347/251/339
f 347/251/339 341/245/333 348/252/340
f 341/245/333 340/244/332 348/252/340
f 347/251/339 348/252/340 346/250/338
f 346/250/338 348/252/340 349/253/341
f 348/252/340 340/244/332 349/253/341
f 349/253/341 340/244/332 350/254/342
f 340/244/332 339/243/331 350/254/342
f 349/253/341 350/254/342 339/243/331
f 349/253/341 339/243/331 351/255/343
f 339/243/331 337/241/329 351/255/343
f 337/241/329 345/249/337 351/255/343
f 345/249/337 346/250/338 351/255/343
f 351/255/343 346/250/338 349/253/341
f 352/256/344 353/257/345 354/258/346
f 353/257/345 352/256/344 355/259/347
f 352/256/344 354/258/346 356/260/348
f 355/259/347 352/256/344 357/261/349
f 352/256/344 356/260/348 358/262/350
f 357/261/349 352/256/344 359/263/351
f 352/256/344 358/262/350 360/264/352
f 359/263/351 352/256/344 361/265/353
f 352/256/344 360/264/352 362/266/354
f 361/265/353 352/256/344 363/267/355
f 352/256/344 362/266/354 364/268/356
f 363/267/355 352/256/344 365/269/357
f 352/256/344 364/268/356 366/270/358
f 365/269/357 352/256/344 367/271/359
f 352/256/344 366/270/358 368/272/360
f 367/271/359 352/256/344 369/273/361
f 352/256/344 368/272/360 370/274/362
f 369/273/361 352/256/344 371/275/363
f 352/256/344 370/274/362 372/276/364
f 371/275/363 352/256/344 372/276/364
f 373/277/365 374/278/366 375/279/367
f 373/277/365 375/279/367 376/280/368
f 373/277/365 376/280/368 377/281/369
f 377/281/369 376/280/368 378/282/370
f 377/281/369 378/282/370 379/283/371
f 379/283/371 378/282/370 380/284/372
f 379/283/371 380/284/372 381/285/373
f 381/285/373 380/284/372 382/286/374
f 381/285/373 382/286/374 383/287/375
f 383/287/375 382/286/374 384/288/376
f 383/287/375 384/288/376 385/289/377
f 385/289/377 384/288/376 386/290/378
f 385/289/377 386/290/378 387/291/379
f 387/291/379 386/290/378 388/292/380
f 387/291/379 388/292/380 389/293/381
f 389/293/381 388/292/380 390/294/382
f 389/293/381 390/294/382 391/295/383
f 391/295/383 390/294/382 392/296/384
f 391/295/383 392/296/384 393/297/385
f 393/297/385 392/296/384 394/298/386
f 393/297/385 394/298/386 395/299/387
f 395/299/387 394/298/386 396/300/388
f 395/299/387 396/300/388 397/301/389
f 397/301/389 396/300/388 398/302/390
f 397/301/389 398/302/390 399/303/391
f 399/303/391 398/302/390 400/304/392
f 399/303/391 400/304/392 401/305/393
f 401/305/393 400/304/392 402/306/394
f 401/305/393 402/306/394 403/307/395
f 403/307/395 402/306/394 404/308/396
f 403/307/395 404/308/396 405/309/397
f 405/309/397 404/308/396 406/310/398
f 405/309/397 406/310/398 407/311/399
f 407/311/399 406/310/398 408/312/400
f 407/311/399 408/312/400 409/313/401
f 409/313/401 408/312/400 410/314/402
f 409/313/401 410/314/402 411/315/403
f 411/315/403 410/314/402 412/316/404
f 411/315/403 412/316/404 374/278/366
f 374/278/366 412/316/404 375/279/367
f 412/316/404 413/317/405 375/279/367
f 413/317/405 412/316/404 414/318/406
f 414/318/406 412/316/404 410/314/402
f 414/318/406 410/314/402 415/319/407
f 415/319/407 410/314/402 408/312/400
f 415/319/407 408/312/400 416/320/408
f 416/320/408 408/312/400 406/310/398
f 416/320/408 406/310/398 417/321/409
f 417/321/409 406/310/398 404/308/396
f 417/321/409 404/308/396 418/322/410
f 418/322/410 404/308/396 402/306/394
f 418/322/410 402/306/394 419/323/411
f 419/323/411 402/306/394 400/304/392
f 419/323/411 400/304/392 420/324/412
f 420/324/412 400/304/392 398/302/390
f 420/324/412 398/302/390 421/325/413
f 421/325/413 398/302/390 396/300/388
f 421/325/413 396/300/388 422/326/414
f 422/326/414 396/300/388 394/298/386
f 422/326/414 394/298/386 423/327/415
f 423/327/415 394/298/386 392/296/384
f 423/327/415 392/296/384 424/328/416
f 424/328/416 392/296/384 390/294/382
f 424/328/416 390/294/382 425/329/417
f 425/329/417 390/294/382 388/292/380
f 425/329/417 388/292/380 426/330/418
f 426/330/418 388/292/380 386/290/378
f 426/330/418 386/290/378 427/331/419
f 427/331/419 386/290/378 384/288/376
f 427/331/419 384/288/376 428/332/420
f 428/332/420 384/288/376 382/286/374
f 428/332/420 382/286/374 429/333/421
f 429/333/421 382/286/374 380/284/372
f 429/333/421 380/284/372 430/334/422
f 430/334/422 380/284/372 378/282/370
f 430/334/422 378/282/370 431/335/423
f 431/335/423 378/282/370 376/280/368
f 431/335/423 376/280/368 432/336/424
f 432/336/424 376/280/368 375/279/367
f 432/336/424 375/279/367 413/317/405
f 432/336/424 413/317/405 433/337/425
f 432/336/424 433/337/425 434/338/426
f 432/336/424 434/338/426 431/335/423
f 431/335/423 434/338/426 435/339/427
f 431/335/423 435/339/427 430/334/422
f 430/334/422 435/339/427 436/340/428
f 430/334/422 436/340/428 429/333/421
f 429/333/421 436/340/428 437/341/429
f 429/333/421 437/341/429 428/332/420
f 428/332/420 437/341/429 438/342/430
f 428/332/420 438/342/430 427/331/419
f 427/331/419 438/342/430 439/343/431
f 427/331/419 439/343/431 426/330/418
f 426/330/418 439/343/431 440/344/432
f 426/330/418 440/344/432 425/329/417
f 425/329/417 440/344/432 441/345/433
f 425/329/417 441/345/433 424/328/416
f 424/328/416 441/345/433 442/346/434
f 424/328/416 442/346/434 423/327/415
f 423/327/415 442/346/434 443/347/435
f 423/327/415 443/347/435 422/326/414
f 422/326/414 443/347/435 444/348/436
f 422/326/414 444/348/436 421/325/413
f 421/325/413 444/348/436 445/349/437
f 421/325/413 445/349/437 420/324/412
f 420/324/412 445/349/437 446/350/438
f 420/324/412 446/350/438 419/323/411
f 419/323/411 446/350/438 447/351/439
f 419/323/411 447/351/439 418/322/410
f 418/322/410 447/351/439 448/352/440
f 418/322/410 448/352/440 417/321/409
f 417/321/409 448/352/440 449/353/441
f 417/321/409 449/353/441 416/320/408
f 416/320/408 449/353/441 450/354/442
f 416/320/408 450/354/442 415/319/407
f 415/319/407 450/354/442 451/355/443
f 415/319/407 451/355/443 414/318/406
f 414/318/406 451/355/443 452/356/444
f 414/318/406 452/356/444 413/317/405
f 413/317/405 452/356/444 433/337/425
f 433/337/425 452/356/444 453/357/445
f 453/357/445 452/356/444 454/358/446
f 454/358/446 452/356/444 451/355/443
f 454/358/446 451/355/443 455/359/447
f 455/359/447 451/355/443 450/354/442
f 455/359/447 450/354/442 456/360/448
f 456/360/448 450/354/442 449/353/441
f 456/360/448 449/353/441 457/361/449
f 457/361/449 449/353/441 448/352/440
f 457/361/449 448/352/440 458/362/450
f 458/362/450 448/352/440 447/351/439
f 458/362/450 447/351/439 459/363/451
f 459/363/451 447/351/439 446/350/438
f 459/363/451 446/350/438 460/364/452
f 460/364/452 446/350/438 445/349/437
f 460/364/452 445/349/437 461/365/453
f 461/365/453 445/349/437 444/348/436
f 461/365/453 444/348/436 462/366/454
f 462/366/454 444/348/436 443/347/435
f 462/366/454 443/347/435 463/367/455
f 463/367/455 443/347/435 442/346/434
f 463/367/455 442/346/434 464/368/456
f 464/368/456 442/346/434 441/345/433
f 464/368/456 441/345/433 465/369/457
f 465/369/457 441/345/433 440/344/432
f 465/369/457 440/344/432 466/370/458
f 466/370/458 440/344/432 439/343/431
f 466/370/458 439/343/431 467/371/459
f 467/371/459 439/343/431 438/342/430
f 467/371/459 438/342/430 468/372/460
f 468/372/460 438/342/430 437/341/429
f 468/372/460 437/341/429 469/373/461
f 469/373/461 437/341/429 436/340/428
f 469/373/461 436/340/428 470/374/462
f 470/374/462 436/340/428 435/339/427
f 470/374/462 435/339/427 471/375/463
f 471/375/463 435/339/427 434/338/426
f 471/375/463 434/338/426 472/376/464
f 472/376/464 434/338/426 433/337/425
f 472/376/464 433/337/425 453/357/445
f 472/376/464 453/357/445 473/377/465
f 472/376/464 473/377/465 474/378/466
f 472/376/464 474/378/466 471/375/463
f 471/375/463 474/378/466 475/379/467
f 471/375/463 475/379/467 470/374/462
f 470/374/462 475/379/467 476/380/468
f 470/374/462 476/380/468 469/373/461
f 469/373/461 476/380/468 477/381/469
f 469/373/461 477/381/469 468/372/460
f 468/372/460 477/381/469 478/382/470
f 468/372/460 478/382/470 467/371/459
f 467/371/459 478/382/470 479/383/471
f 467/371/459 479/383/471 466/370/458
f 466/370/458 479/383/471 480/384/472
f 466/370/458 480/384/472 465/369/457
f 465/369/457 480/384/472 481/385/473
f 465/369/457 481/385/473 464/368/456
f 464/368/456 481/385/473 482/386/474
f 464/368/456 482/386/474 463/367/455
f 463/367/455 482/386/474 483/387/475
f 463/367/455 483/387/475 462/366/454
f 462/366/454 483/387/475 484/388/476
f 462/366/454 484/388/476 461/365/453
f 461/365/453 484/388/476 485/389/477
f 461/365/453 485/389/477 460/364/452
f 460/364/452 485/389/477 486/390/478
f 460/364/452 486/390/478 459/363/451
f 459/363/451 486/390/478 487/391/479
f 459/363/451 487/391/479 458/362/450
f 458/362/450 487/391/479 488/392/480
f 458/362/450 488/392/480 457/361/449
f 457/361/449 488/392/480 489/393/481
f 457/361/449 489/393/481 456/360/448
f 456/360/448 489/393/481 490/394/482
f 456/360/448 490/394/482 455/359/447
f 455/359/447 490/394/482 491/395/483
f 455/359/447 491/395/483 454/358/446
f 454/358/446 491/395/483 492/396/484
f 454/358/446 492/396/484 453/357/445
f 453/357/445 492/396/484 473/377/465
f 473/377/465 492/396/484 493/397/485
f 493/397/485 492/396/484 494/398/486
f 494/398/486 492/396/484 491/395/483
f 494/398/486 491/395/483 495/399/487
f 495/399/487 491/395/483 490/394/482
f 495/399/487 490/394/482 496/400/488
f 496/400/488 490/394/482 489/393/481
f 496/400/488 489/393/481 497/401/489
f 497/401/489 489/393/481 488/392/480
f 497/401/489 488/392/480 498/402/490
f 498/402/490 488/392/480 487/391/479
f 498/402/490 487/391/479 499/403/491
f 499/403/491 487/391/479 486/390/478
f 499/403/491 486/390/478 500/404/492
f 500/404/492 486/390/478 485/389/477
f 500/404/492 485/389/477 501/405/493
f 501/405/493 485/389/477 484/388/476
f 501/405/493 484/388/476 502/406/494
f 502/406/494 484/388/476 483/387/475
f 502/406/494 483/387/475 503/407/495
f 503/407/495 483/387/475 482/386/474
f 503/407/495 482/386/474 504/408/496
f 504/408/496 482/386/474 481/385/473
f 504/408/496 481/385/473 505/409/497
f 505/409/497 481/385/473 480/384/472
f 505/409/497 480/384/472 506/410/498
f 506/410/498 480/384/472 479/383/471
f 506/410/498 479/383/471 507/411/499
f 507/411/499 479/383/471 478/382/470
f 507/411/499 478/382/470 508/412/500
f 508/412/500 478/382/470 477/381/469
f 508/412/500 477/381/469 509/413/501
f 509/413/501 477/381/469 476/380/468
f 509/413/501 476/380/468 510/414/502
f 510/414/502 476/380/468 475/379/467
f 510/414/502 475/379/467 511/415/503
f 511/415/503 475/379/467 474/378/466
f 511/415/503 474/378/466 512/416/504
f 512/416/504 474/378/466 473/377/465
f 512/416/504 473/377/465 493/397/485
f 512/416/504 493/397/485 513/417/505
f 512/416/504 513/417/505 514/418/506
f 512/416/504 514/418/506 511/415/503
f 511/415/503 514/418/506 515/419/507
f 511/415/503 515/419/507 510/414/502
f 510/414/502 515/419/507 516/420/508
f 510/414/502 516/420/508 509/413/501
f 509/413/501 516/420/508 517/421/509
f 509/413/501 517/421/509 508/412/500
f 508/412/500 517/421/509 518/422/510
f 508/412/500 518/422/510 507/411/499
f 507/411/499 518/422/510 519/423/511
f 507/411/499 519/423/511 506/410/498
f 506/410/498 519/423/511 520/424/512
f 506/410/498 520/424/512 505/409/497
f 505/409/497 520/424/512 521/425/513
f 505/409/497 521/425/513 504/408/496
f 504/408/496 521/425/513 522/426/514
f 504/408/496 522/426/514 503/407/495
f 503/407/495 522/426/514 523/427/515
f 503/407/495 523/427/515 502/406/494
f 502/406/494 523/427/515 524/428/516
f 502/406/494 524/428/516 501/405/493
f 501/405/493 524/428/516 525/429/517
f 501/405/493 525/429/517 500/404/492
f 500/404/492 525/429/517 526/430/518
f 500/404/492 526/430/518 499/403/491
f 499/403/491 526/430/518 527/431/519
f 499/403/491 527/431/519 498/402/490
f 498/402/490 527/431/519 528/432/520
f 498/402/490 528/432/520 497/401/489
f 497/401/489 528/432/520 529/433/521
f 497/401/489 529/433/521 496/400/488
f 496/400/488 529/433/521 530/434/522
f 496/400/488 530/434/522 495/399/487
f 495/399/487 530/434/522 531/435/523
f 495/399/487 531/435/523 494/398/486
f 494/398/486 531/435/523 532/436/524
f 494/398/486 532/436/524 493/397/485
f 493/397/485 532/436/524 513/417/505
f 513/417/505 532/436/524 533/437/525
f 533/437/525 532/436/524 534/438/526
f 534/438/526 532/436/524 531/435/523
f 534/438/526 531/435/523 535/439/527
f 535/439/527 531/435/523 530/434/522
f 535/439/527 530/434/522 536/440/528
f 536/440/528 530/434/522 529/433/521
f 536/440/528 529/433/521 537/441/529
f 537/441/529 529/433/521 528/432/520
f 537/441/529 528/432/520 538/442/530
f 538/442/530 528/432/520 527/431/519
f 538/442/530 527/431/519 539/443/531
f 539/443/531 527/431/519 526/430/518
f 539/443/531 526/430/518 540/444/532
f 540/444/532 526/430/518 525/429/517
f 540/444/532 525/429/517 541/445/533
f 541/445/533 525/429/517 524/428/516
f 541/445/533 524/428/516 542/446/534
f 542/446/534 524/428/516 523/427/515
f 542/446/534 523/427/515 543/447/535
f 543/447/535 523/427/515 522/426/514
f 543/447/535 522/426/514 544/448/536
f 544/448/536 522/426/514 521/425/513
f 544/448/536 521/425/513 545/449/537
f 545/449/537 521/425/513 520/424/512
f 545/449/537 520/424/512 546/450/538
f 546/450/538 520/424/512 519/423/511
f 546/450/538 519/423/511 547/451/539
f 547/451/539 519/423/511 518/422/510
f 547/451/539 518/422/510 548/452/540
f 548/452/540 518/422/510 517/421/509
f 548/452/540 517/421/509 549/453/541
f 549/453/541 517/421/509 516/420/508
f 549/453/541 516/420/508 550/454/542
f 550/454/542 516/420/508 515/419/507
f 550/454/542 515/419/507 551/455/543
f 551/455/543 515/419/507 514/418/506
f 551/455/543 514/418/506 552/456/544
f 552/456/544 514/418/506 513/417/505
f 552/456/544 513/417/505 533/437/525
f 552/456/544 533/437/525 553/457/545
f 552/456/544 553/457/545 554/458/546
f 552/456/544 554/458/546 551/455/543
f 551/455/543 554/458/546 555/459/547
f 551/455/543 555/459/547 550/454/542
f 550/454/542 555/459/547 556/460/548
f 550/454/542 556/460/548 549/453/541
f 549/453/541 556/460/548 557/461/549
f 549/453/541 557/461/549 548/452/540
f 548/452/540 557/461/549 558/462/550
f 548/452/540 558/462/550 547/451/539
f 547/451/539 558/462/550 559/463/551
f 547/451/539 559/463/551 546/450/538
f 546/450/538 559/463/551 560/464/552
f 546/450/538 560/464/552 545/449/537
f 545/449/537 560/464/552 561/465/553
f 545/449/537 561/465/553 544/448/536
f 544/448/536 561/465/553 562/466/554
f 544/448/536 562/466/554 543/447/535
f 543/447/535 562/466/554 563/467/555
f 543/447/535 563/467/555 542/446/534
f 542/446/534 563/467/555 564/468/556
f 542/446/534 564/468/556 541/445/533
f 541/445/533 564/468/556 565/469/557
f 541/445/533 565/469/557 540/444/532
f 540/444/532 565/469/557 566/470/558
f 540/444/532 566/470/558 539/443/531
f 539/443/531 566/470/558 567/471/559
f 539/443/531 567/471/559 538/442/530
f 538/442/530 567/471/559 568/472/560
f 538/442/530 568/472/560 537/441/529
f 537/441/529 568/472/560 569/473/561
f 537/441/529 569/473/561 536/440/528
f 536/440/528 569/473/561 570/474/562
f 536/440/528 570/474/562 535/439/527
f 535/439/527 570/474/562 571/475/563
f 535/439/527 571/475/563 534/438/526
f 534/438/526 571/475/563 572/476/564
f 534/438/526 572/476/564 533/437/525
f 533/437/525 572/476/564 553/457/545
f 553/457/545 572/476/564 573/477/565
f 573/477/565 572/476/564 574/478/566
f 574/478/566 572/476/564 571/475/563
f 574/478/566 571/475/563 575/479/567
f 575/479/567 571/475/563 570/474/562
f 575/479/567 570/474/562 576/480/568
f 576/480/568 570/474/562 569/473/561
f 576/480/568 569/473/561 577/481/569
f 577/481/569 569/473/561 568/472/560
f 577/481/569 568/472/560 578/482/570
f 578/482/570 568/472/560 567/471/559
f 578/482/570 567/471/559 579/483/571
f 579/483/571 567/471/559 566/470/558
f 579/483/571 566/470/558 580/484/572
f 580/484/572 566/470/558 565/469/557
f 580/484/572 565/469/557 581/485/573
f 581/485/573 565/469/557 564/468/556
f 581/485/573 564/468/556 582/486/574
f 582/486/574 564/468/556 563/467/555
f 582/486/574 563/467/555 583/487/575
f 583/487/575 563/467/555 562/466/554
f 583/487/575 562/466/554 584/488/576
f 584/488/576 562/466/554 561/465/553
f 584/488/576 561/465/553 585/489/577
f 585/489/577 561/465/553 560/464/552
f 585/489/577 560/464/552 586/490/578
f 586/490/578 560/464/552 559/463/551
f 586/490/578 559/463/551 587/491/579
f 587/491/579 559/463/551 558/462/550
f 587/491/579 558/462/550 588/492/580
f 588/492/580 558/462/550 557/461/549
f 588/492/580 557/461/549 589/493/581
f 589/493/581 557/461/549 556/460/548
f 589/493/581 556/460/548 590/494/582
f 590/494/582 556/460/548 555/459/547
f 590/494/582 555/459/547 591/495/583
f 591/495/583 555/459/547 554/458/546
f 591/495/583 554/458/546 592/496/584
f 592/496/584 554/458/546 553/457/545
f 592/496/584 553/457/545 573/477/565
f 592/496/584 573/477/565 593/497/585
f 592/496/584 593/497/585 594/498/586
f 592/496/584 594/498/586 591/495/583
f 591/495/583 594/498/586 590/494/582
f 590/494/582 594/498/586 595/499/587
f 590/494/582 595/499/587 589/493/581
f 589/493/581 595/499/587 596/500/588
f 589/493/581 596/500/588 588/492/580
f 588/492/580 596/500/588 597/501/589
f 588/492/580 597/501/589 587/491/579
f 587/491/579 597/501/589 598/502/590
f 587/491/579 598/502/590 586/490/578
f 586/490/578 598/502/590 599/503/591
f 586/490/578 599/503/591 585/489/577
f 585/489/577 599/503/591 600/504/592
f 585/489/577 600/504/592 584/488/576
f 584/488/576 600/504/592 601/505/593
f 584/488/576 601/505/593 583/487/575
f 583/487/575 601/505/593 602/506/594
f 583/487/575 602/506/594 582/486/574
f 602/506/594 601/505/593 603/507/595
f 603/507/595 601/505/593 604/508/596
f 601/505/593 600/504/592 604/508/596
f 604/508/596 600/504/592 605/509/597
f 600/504/592 599/503/591 605/509/597
f 605/509/597 599/503/591 606/510/598
f 599/503/591 598/502/590 606/510/598
f 606/510/598 598/502/590 607/511/599
f 598/502/590 597/501/589 607/511/599
f 607/511/599 597/501/589 608/512/600
f 597/501/589 596/500/588 608/512/600
f 608/512/600 596/500/588 609/513/601
f 596/500/588 595/499/587 609/513/601
f 609/513/601 595/499/587 610/514/602
f 595/499/587 594/498/586 610/514/602
f 610/514/602 594/498/586 611/515/603
f 594/498/586 593/497/585 611/515/603
f 610/514/602 611/515/603 612/516/604
f 610/514/602 612/516/604 613/517/605
f 610/514/602 613/517/605 609/513/601
f 609/513/601 613/517/605 614/518/606
f 609/513/601 614/518/606 608/512/600
f 608/512/600 614/518/606 615/519/607
f 608/512/600 615/519/607 607/511/599
f 607/511/599 615/519/607 616/520/608
f 607/511/599 616/520/608 606/510/598
f 606/510/598 616/520/608 617/521/609
f 606/510/598 617/521/609 605/509/597
f 605/509/597 617/521/609 618/522/610
f 605/509/597 618/522/610 604/508/596
f 604/508/596 618/522/610 619/523/611
f 604/508/596 619/523/611 603/507/595
f 619/523/611 618/522/610 620/524/612
f 618/522/610 617/521/609 620/524/612
f 617/521/609 616/520/608 620/524/612
f 616/520/608 615/519/607 620/524/612
f 615/519/607 614/518/606 620/524/612
f 614/518/606 613/517/605 620/524/612
f 613/517/605 612/516/604 620/524/612
f 612/516/604 621/525/613 620/524/612
f 621/525/613 612/516/604 611/515/603
f 621/525/613 611/515/603 622/526/614
f 621/525/613 622/526/614 620/524/612
f 622/526/614 611/515/603 623/527/615
f 611/515/603 593/497/585 623/527/615
f 622/526/614 623/527/615 624/528/616
f 622/526/614 624/528/616 620/524/612
f 624/528/616 623/527/615 625/529/617
f 625/529/617 623/527/615 593/497/585
f 624/528/616 625/529/617 626/530/618
f 624/528/616 626/530/618 620/524/612
f 626/530/618 625/529/617 627/531/619
f 620/524/612 626/530/618 628/532/620
f 627/531/619 628/532/620 626/530/618
f 628/532/620 627/531/619 629/533/621
f 628/532/620 629/533/621 630/534/622
f 628/532/620 630/534/622 620/524/612
f 630/534/622 629/533/621 631/535/623
f 620/524/612 630/534/622 632/536/624
f 631/535/623 632/536/624 630/534/622
f 632/536/624 631/535/623 633/537/625
f 632/536/624 633/537/625 634/538/626
f 632/536/624 634/538/626 620/524/612
f 634/538/626 635/539/627 620/524/612
f 635/539/627 634/538/626 636/540/628
f 636/540/628 634/538/626 633/537/625
f 636/540/628 633/537/625 637/541/629
f 637/541/629 633/537/625 638/542/630
f 638/542/630 633/537/625 631/535/623
f 638/542/630 631/535/623 639/543/631
f 639/543/631 631/535/623 629/533/621
f 639/543/631 629/533/621 640/544/632
f 640/544/632 629/533/621 627/531/619
f 640/544/632 627/531/619 641/545/633
f 641/545/633 627/531/619 625/529/617
f 641/545/633 625/529/617 593/497/585
f 641/545/633 593/497/585 573/477/565
f 641/545/633 573/477/565 574/478/566
f 641/545/633 574/478/566 640/544/632
f 574/478/566 575/479/567 640/544/632
f 640/544/632 575/479/567 639/543/631
f 575/479/567 576/480/568 639/543/631
f 639/543/631 576/480/568 638/542/630
f 576/480/568 577/481/569 638/542/630
f 638/542/630 577/481/569 637/541/629
f 577/481/569 578/482/570 637/541/629
f 637/541/629 578/482/570 642/546/634
f 637/541/629 642/546/634 636/540/628
f 642/546/634 643/547/635 636/540/628
f 643/547/635 635/539/627 636/540/628
f 635/539/627 643/547/635 644/548/636
f 635/539/627 644/548/636 620/524/612
f 644/548/636 643/547/635 645/549/637
f 645/549/637 643/547/635 646/550/638
f 646/550/638 643/547/635 642/546/634
f 646/550/638 642/546/634 579/483/571
f 579/483/571 642/546/634 578/482/570
f 646/550/638 579/483/571 580/484/572
f 646/550/638 580/484/572 647/551/639
f 646/550/638 647/551/639 645/549/637
f 580/484/572 581/485/573 647/551/639
f 647/551/639 581/485/573 648/552/640
f 581/485/573 582/486/574 648/552/640
f 647/551/639 648/552/640 649/553/641
f 647/551/639 649/553/641 645/549/637
f 649/553/641 650/554/642 645/549/637
f 645/549/637 650/554/642 644/548/636
f 644/548/636 650/554/642 620/524/612
f 650/554/642 651/555/643 620/524/612
f 651/555/643 619/523/611 620/524/612
f 619/523/611 651/555/643 603/507/595
f 603/507/595 651/555/643 652/556/644
f 652/556/644 651/555/643 650/554/642
f 652/556/644 650/554/642 649/553/641
f 652/556/644 649/553/641 648/552/640
f 652/556/644 648/552/640 653/557/645
f 648/552/640 582/486/574 653/557/645
f 652/556/644 653/557/645 602/506/594
f 582/486/574 602/506/594 653/557/645
f 652/556/644 602/506/594 603/507/595
